G04 #@! TF.GenerationSoftware,KiCad,Pcbnew,10.0.5*
G04 #@! TF.CreationDate,2026-08-26T17:08:49+02:00*
G04 #@! TF.ProjectId,hdmi_pmod,68646d69-5f70-46d6-9f64-2e6b69636164,rev?*
G04 #@! TF.SameCoordinates,Original*
G04 #@! TF.FileFunction,Soldermask,Bot*
G04 #@! TF.FilePolarity,Negative*
%FSLAX46Y46*%
G04 Gerber Fmt 4.6, Leading zero omitted, Abs format (unit mm)*
G04 Created by KiCad (PCBNEW 10.0.5) date 2026-08-26 17:08:49*
%MOMM*%
%LPD*%
G01*
G04 APERTURE LIST*
G04 Aperture macros list*
%AMRoundRect*
0 Rectangle with rounded corners*
0 $1 Rounding radius*
0 $2 $3 $4 $5 $6 $7 $8 $9 X,Y pos of 4 corners*
0 Add a 4 corners polygon primitive as box body*
4,1,4,$2,$3,$4,$5,$6,$7,$8,$9,$2,$3,0*
0 Add four circle primitives for the rounded corners*
1,1,$1+$1,$2,$3*
1,1,$1+$1,$4,$5*
1,1,$1+$1,$6,$7*
1,1,$1+$1,$8,$9*
0 Add four rect primitives between the rounded corners*
20,1,$1+$1,$2,$3,$4,$5,0*
20,1,$1+$1,$4,$5,$6,$7,0*
20,1,$1+$1,$6,$7,$8,$9,0*
20,1,$1+$1,$8,$9,$2,$3,0*%
G04 Aperture macros list end*
%ADD10C,1.828800*%
%ADD11R,1.700000X1.700000*%
%ADD12O,1.700000X1.700000*%
%ADD13R,1.524000X1.524000*%
%ADD14C,1.524000*%
%ADD15RoundRect,0.249999X0.450001X-0.262501X0.450001X0.262501X-0.450001X0.262501X-0.450001X-0.262501X0*%
%ADD16RoundRect,0.249999X-0.450001X0.262501X-0.450001X-0.262501X0.450001X-0.262501X0.450001X0.262501X0*%
G04 #@! TA.AperFunction,Profile*
%ADD17C,0.038100*%
G04 #@! TD*
G04 APERTURE END LIST*
D10*
G04 #@! TO.C,J0*
X114678790Y-81657053D03*
X109778800Y-81056978D03*
X109778800Y-66407020D03*
X114678790Y-65806945D03*
G04 #@! TD*
D11*
G04 #@! TO.C,J1*
X97525000Y-82325000D03*
D12*
X97525000Y-79785000D03*
X100065000Y-82325000D03*
X100065000Y-79785000D03*
X102605000Y-82325000D03*
X102605000Y-79785000D03*
X105145000Y-82325000D03*
X105145000Y-79785000D03*
G04 #@! TD*
D13*
G04 #@! TO.C,PMOD1*
X91211400Y-67716400D03*
D14*
X91211400Y-70256400D03*
X91211400Y-72796400D03*
X91211400Y-75336400D03*
X91211400Y-77876400D03*
X91211400Y-80416400D03*
X88671400Y-67716400D03*
X88671400Y-70256400D03*
X88671400Y-72796400D03*
X88671400Y-75336400D03*
X88671400Y-77876400D03*
X88671400Y-80416400D03*
G04 #@! TD*
D15*
G04 #@! TO.C,R2*
X102600000Y-76012500D03*
X102600000Y-74187500D03*
G04 #@! TD*
G04 #@! TO.C,R1*
X100100000Y-76012500D03*
X100100000Y-74187500D03*
G04 #@! TD*
D16*
G04 #@! TO.C,R4*
X105100000Y-74187500D03*
X105100000Y-76012500D03*
G04 #@! TD*
D15*
G04 #@! TO.C,R3*
X97600000Y-76012500D03*
X97600000Y-74187500D03*
G04 #@! TD*
D17*
X84836000Y-63881000D02*
X116700000Y-63880000D01*
X84836000Y-84201000D02*
X84836000Y-63881000D01*
X116700000Y-63880000D02*
X116700000Y-84200000D01*
X116700000Y-84200000D02*
X84836000Y-84201000D01*
M02*
