M48
; DRILL file KiCad 10.0.5 date 2026-08-26T17:09:08
; FORMAT={-:-/ absolute / metric / decimal}
; #@! TF.CreationDate,2026-08-26T17:09:08+02:00
; #@! TF.GenerationSoftware,Kicad,Pcbnew,10.0.5
; #@! TF.FileFunction,Plated,1,4,PTH
FMAT,2
METRIC
; #@! TA.AperFunction,Plated,PTH,ViaDrill
T1C0.200
; #@! TA.AperFunction,Plated,PTH,ViaDrill
T2C0.300
; #@! TA.AperFunction,Plated,PTH,ComponentDrill
T3C1.000
; #@! TA.AperFunction,Plated,PTH,ComponentDrill
T4C1.016
; #@! TA.AperFunction,Plated,PTH,ComponentDrill
T5C1.321
%
G90
G05
T1
X101.604Y-71.116
X102.003Y-70.717
T2
X105.1Y-77.2
X110.7Y-69.8
X110.7Y-71.25
X110.7Y-72.75
X110.7Y-74.25
X110.7Y-75.242
X110.7Y-76.241
X110.7Y-77.25
X110.7Y-78.25
X111.3Y-75.75
X111.3Y-76.7
X111.3Y-77.75
T3
X97.525Y-79.785
X97.525Y-82.325
X100.065Y-79.785
X100.065Y-82.325
X102.605Y-79.785
X102.605Y-82.325
X105.145Y-79.785
X105.145Y-82.325
T4
X88.671Y-67.716
X88.671Y-70.256
X88.671Y-72.796
X88.671Y-75.336
X88.671Y-77.876
X88.671Y-80.416
X91.211Y-67.716
X91.211Y-70.256
X91.211Y-72.796
X91.211Y-75.336
X91.211Y-77.876
X91.211Y-80.416
T5
X109.779Y-66.407
X109.779Y-81.057
X114.679Y-65.807
X114.679Y-81.657
M30
