G04 #@! TF.GenerationSoftware,KiCad,Pcbnew,10.0.5*
G04 #@! TF.CreationDate,2026-08-26T17:08:49+02:00*
G04 #@! TF.ProjectId,hdmi_pmod,68646d69-5f70-46d6-9f64-2e6b69636164,rev?*
G04 #@! TF.SameCoordinates,Original*
G04 #@! TF.FileFunction,Soldermask,Top*
G04 #@! TF.FilePolarity,Negative*
%FSLAX46Y46*%
G04 Gerber Fmt 4.6, Leading zero omitted, Abs format (unit mm)*
G04 Created by KiCad (PCBNEW 10.0.5) date 2026-08-26 17:08:49*
%MOMM*%
%LPD*%
G01*
G04 APERTURE LIST*
%ADD10R,2.387600X0.330200*%
%ADD11C,1.828800*%
%ADD12R,1.700000X1.700000*%
%ADD13O,1.700000X1.700000*%
%ADD14R,1.524000X1.524000*%
%ADD15C,1.524000*%
G04 #@! TA.AperFunction,Profile*
%ADD16C,0.038100*%
G04 #@! TD*
G04 APERTURE END LIST*
D10*
G04 #@! TO.C,J0*
X108585000Y-69231998D03*
X108585000Y-69731999D03*
X108585000Y-70231998D03*
X108585000Y-70732000D03*
X108585000Y-71231999D03*
X108585000Y-71731998D03*
X108585000Y-72231999D03*
X108585000Y-72731998D03*
X108585000Y-73232000D03*
X108585000Y-73731999D03*
X108585000Y-74231998D03*
X108585000Y-74731999D03*
X108585000Y-75231998D03*
X108585000Y-75732000D03*
X108585000Y-76231999D03*
X108585000Y-76731998D03*
X108585000Y-77231999D03*
X108585000Y-77731998D03*
X108585000Y-78232000D03*
D11*
X114678790Y-81657053D03*
X109778800Y-81056978D03*
X109778800Y-66407020D03*
X114678790Y-65806945D03*
G04 #@! TD*
D12*
G04 #@! TO.C,J1*
X97525000Y-82325000D03*
D13*
X97525000Y-79785000D03*
X100065000Y-82325000D03*
X100065000Y-79785000D03*
X102605000Y-82325000D03*
X102605000Y-79785000D03*
X105145000Y-82325000D03*
X105145000Y-79785000D03*
G04 #@! TD*
D14*
G04 #@! TO.C,PMOD1*
X91211400Y-67716400D03*
D15*
X91211400Y-70256400D03*
X91211400Y-72796400D03*
X91211400Y-75336400D03*
X91211400Y-77876400D03*
X91211400Y-80416400D03*
X88671400Y-67716400D03*
X88671400Y-70256400D03*
X88671400Y-72796400D03*
X88671400Y-75336400D03*
X88671400Y-77876400D03*
X88671400Y-80416400D03*
G04 #@! TD*
D16*
X84836000Y-63881000D02*
X116700000Y-63880000D01*
X84836000Y-84201000D02*
X84836000Y-63881000D01*
X116700000Y-63880000D02*
X116700000Y-84200000D01*
X116700000Y-84200000D02*
X84836000Y-84201000D01*
M02*
