G04 #@! TF.GenerationSoftware,KiCad,Pcbnew,10.0.5*
G04 #@! TF.CreationDate,2026-08-26T17:08:49+02:00*
G04 #@! TF.ProjectId,hdmi_pmod,68646d69-5f70-46d6-9f64-2e6b69636164,rev?*
G04 #@! TF.SameCoordinates,Original*
G04 #@! TF.FileFunction,Copper,L4,Bot*
G04 #@! TF.FilePolarity,Positive*
%FSLAX46Y46*%
G04 Gerber Fmt 4.6, Leading zero omitted, Abs format (unit mm)*
G04 Created by KiCad (PCBNEW 10.0.5) date 2026-08-26 17:08:49*
%MOMM*%
%LPD*%
G01*
G04 APERTURE LIST*
G04 Aperture macros list*
%AMRoundRect*
0 Rectangle with rounded corners*
0 $1 Rounding radius*
0 $2 $3 $4 $5 $6 $7 $8 $9 X,Y pos of 4 corners*
0 Add a 4 corners polygon primitive as box body*
4,1,4,$2,$3,$4,$5,$6,$7,$8,$9,$2,$3,0*
0 Add four circle primitives for the rounded corners*
1,1,$1+$1,$2,$3*
1,1,$1+$1,$4,$5*
1,1,$1+$1,$6,$7*
1,1,$1+$1,$8,$9*
0 Add four rect primitives between the rounded corners*
20,1,$1+$1,$2,$3,$4,$5,0*
20,1,$1+$1,$4,$5,$6,$7,0*
20,1,$1+$1,$6,$7,$8,$9,0*
20,1,$1+$1,$8,$9,$2,$3,0*%
G04 Aperture macros list end*
G04 #@! TA.AperFunction,ComponentPad*
%ADD10C,1.828800*%
G04 #@! TD*
G04 #@! TA.AperFunction,ComponentPad*
%ADD11R,1.700000X1.700000*%
G04 #@! TD*
G04 #@! TA.AperFunction,ComponentPad*
%ADD12O,1.700000X1.700000*%
G04 #@! TD*
G04 #@! TA.AperFunction,ComponentPad*
%ADD13R,1.524000X1.524000*%
G04 #@! TD*
G04 #@! TA.AperFunction,ComponentPad*
%ADD14C,1.524000*%
G04 #@! TD*
G04 #@! TA.AperFunction,SMDPad,CuDef*
%ADD15RoundRect,0.249999X0.450001X-0.262501X0.450001X0.262501X-0.450001X0.262501X-0.450001X-0.262501X0*%
G04 #@! TD*
G04 #@! TA.AperFunction,SMDPad,CuDef*
%ADD16RoundRect,0.249999X-0.450001X0.262501X-0.450001X-0.262501X0.450001X-0.262501X0.450001X0.262501X0*%
G04 #@! TD*
G04 #@! TA.AperFunction,ViaPad*
%ADD17C,0.600000*%
G04 #@! TD*
G04 #@! TA.AperFunction,ViaPad*
%ADD18C,0.450000*%
G04 #@! TD*
G04 #@! TA.AperFunction,Conductor*
%ADD19C,0.095500*%
G04 #@! TD*
G04 #@! TA.AperFunction,Conductor*
%ADD20C,0.127000*%
G04 #@! TD*
G04 #@! TA.AperFunction,Conductor*
%ADD21C,1.000000*%
G04 #@! TD*
G04 #@! TA.AperFunction,Profile*
%ADD22C,0.038100*%
G04 #@! TD*
G04 APERTURE END LIST*
D10*
G04 #@! TO.P,J0,SH,SH_SH*
G04 #@! TO.N,GND*
X114678790Y-81657053D03*
X109778800Y-81056978D03*
X109778800Y-66407020D03*
X114678790Y-65806945D03*
G04 #@! TD*
D11*
G04 #@! TO.P,J1,1,Pin_1_1*
G04 #@! TO.N,+5V*
X97525000Y-82325000D03*
D12*
G04 #@! TO.P,J1,2,Pin_2_2*
G04 #@! TO.N,+3.3V*
X97525000Y-79785000D03*
G04 #@! TO.P,J1,3,Pin_3_3*
G04 #@! TO.N,GND*
X100065000Y-82325000D03*
G04 #@! TO.P,J1,4,Pin_4_4*
G04 #@! TO.N,/CEC*
X100065000Y-79785000D03*
G04 #@! TO.P,J1,5,Pin_5_5*
G04 #@! TO.N,/HEAC+*
X102605000Y-82325000D03*
G04 #@! TO.P,J1,6,Pin_6_6*
G04 #@! TO.N,/SCL*
X102605000Y-79785000D03*
G04 #@! TO.P,J1,7,Pin_7_7*
G04 #@! TO.N,/HEAC-*
X105145000Y-82325000D03*
G04 #@! TO.P,J1,8,Pin_8_8*
G04 #@! TO.N,/SDA*
X105145000Y-79785000D03*
G04 #@! TD*
D13*
G04 #@! TO.P,PMOD1,1,J1_P_1*
G04 #@! TO.N,/TMDS_G+*
X91211400Y-67716400D03*
D14*
G04 #@! TO.P,PMOD1,2,J2_P_2*
G04 #@! TO.N,/TMDS_R+*
X91211400Y-70256400D03*
G04 #@! TO.P,PMOD1,3,J3_P_3*
G04 #@! TO.N,/TMDS_B+*
X91211400Y-72796400D03*
G04 #@! TO.P,PMOD1,4,J4_P_4*
G04 #@! TO.N,/TMDS_CLK+*
X91211400Y-75336400D03*
G04 #@! TO.P,PMOD1,5,GND_5*
G04 #@! TO.N,GND*
X91211400Y-77876400D03*
G04 #@! TO.P,PMOD1,6,VCC_6*
G04 #@! TO.N,+3.3V*
X91211400Y-80416400D03*
G04 #@! TO.P,PMOD1,7,J1_N_7*
G04 #@! TO.N,/TMDS_G-*
X88671400Y-67716400D03*
G04 #@! TO.P,PMOD1,8,J2_N_8*
G04 #@! TO.N,/TMDS_R-*
X88671400Y-70256400D03*
G04 #@! TO.P,PMOD1,9,J3_N_9*
G04 #@! TO.N,/TMDS_B-*
X88671400Y-72796400D03*
G04 #@! TO.P,PMOD1,10,J4_N_10*
G04 #@! TO.N,/TMDS_CLK-*
X88671400Y-75336400D03*
G04 #@! TO.P,PMOD1,11,GND_11*
G04 #@! TO.N,GND*
X88671400Y-77876400D03*
G04 #@! TO.P,PMOD1,12,VCC_12*
G04 #@! TO.N,+3.3V*
X88671400Y-80416400D03*
G04 #@! TD*
D15*
G04 #@! TO.P,R2,1*
G04 #@! TO.N,+5V*
X102600000Y-76012500D03*
G04 #@! TO.P,R2,2*
G04 #@! TO.N,/SDA*
X102600000Y-74187500D03*
G04 #@! TD*
G04 #@! TO.P,R1,1*
G04 #@! TO.N,+5V*
X100100000Y-76012500D03*
G04 #@! TO.P,R1,2*
G04 #@! TO.N,/SCL*
X100100000Y-74187500D03*
G04 #@! TD*
D16*
G04 #@! TO.P,R4,1*
G04 #@! TO.N,/HEAC-*
X105100000Y-74187500D03*
G04 #@! TO.P,R4,2*
G04 #@! TO.N,GND*
X105100000Y-76012500D03*
G04 #@! TD*
D15*
G04 #@! TO.P,R3,1*
G04 #@! TO.N,+3.3V*
X97600000Y-76012500D03*
G04 #@! TO.P,R3,2*
G04 #@! TO.N,/CEC*
X97600000Y-74187500D03*
G04 #@! TD*
D17*
G04 #@! TO.N,GND*
X110700000Y-69800000D03*
X110700000Y-71250000D03*
X110700000Y-72750000D03*
X105100000Y-77200000D03*
X110700000Y-77250000D03*
X110700000Y-74250000D03*
D18*
G04 #@! TO.N,/TMDS_G+*
X102002711Y-70717289D03*
G04 #@! TO.N,/TMDS_G-*
X101603689Y-71116311D03*
D17*
G04 #@! TO.N,/CEC*
X110700000Y-75241500D03*
G04 #@! TO.N,/HEAC+*
X111300000Y-75750000D03*
G04 #@! TO.N,/SCL*
X110700000Y-76241488D03*
G04 #@! TO.N,/SDA*
X111300000Y-76700000D03*
G04 #@! TO.N,+5V*
X111300000Y-77750000D03*
G04 #@! TO.N,/HEAC-*
X110700000Y-78250000D03*
G04 #@! TD*
G04 #@! TO.N,/TMDS_G+*
D19*
X94667166Y-67716400D02*
X94717176Y-67716400D01*
G04 #@! TO.N,/TMDS_G-*
X99269900Y-68531852D02*
X101603689Y-70865641D01*
X101603689Y-70865641D02*
X101603689Y-71116311D01*
G04 #@! TO.N,/TMDS_G+*
X98751152Y-67716400D02*
X99409581Y-68374829D01*
X99409581Y-68374829D02*
X99418252Y-68383500D01*
G04 #@! TO.N,/TMDS_G-*
X98664248Y-67926200D02*
X99261229Y-68523181D01*
G04 #@! TO.N,/TMDS_G+*
X99418252Y-68383500D02*
X101752041Y-70717289D01*
G04 #@! TO.N,/TMDS_G-*
X99261229Y-68523181D02*
X99269900Y-68531852D01*
X95204739Y-67926200D02*
X98664248Y-67926200D01*
X88671400Y-67716400D02*
X89571150Y-68616150D01*
X92532200Y-67926200D02*
X94667166Y-67926200D01*
X89571150Y-68616150D02*
X92532200Y-68616150D01*
G04 #@! TO.N,/TMDS_G+*
X91211400Y-67716400D02*
X94667166Y-67716400D01*
G04 #@! TO.N,/TMDS_G-*
X92532200Y-68616150D02*
X92532200Y-67926200D01*
X94667166Y-67926200D02*
X95204739Y-67926200D01*
G04 #@! TO.N,GND*
D20*
X109659280Y-66287500D02*
X109778800Y-66407020D01*
X105100000Y-76012500D02*
X105100000Y-77200000D01*
G04 #@! TO.N,/TMDS_G+*
D19*
X98197176Y-67716400D02*
X98317176Y-67716400D01*
X98317176Y-67716400D02*
X98751152Y-67716400D01*
X95557176Y-67154741D02*
X95557176Y-67476400D01*
X96397176Y-66914717D02*
X96517176Y-66914717D01*
X96757176Y-67154717D02*
X96757176Y-67476400D01*
X96997176Y-67716400D02*
X97117176Y-67716400D01*
X97597176Y-66914741D02*
X97717176Y-66914741D01*
X94957176Y-67476400D02*
X94957176Y-67154741D01*
X97357176Y-67476400D02*
X97357176Y-67154741D01*
X95197176Y-66914741D02*
X95317176Y-66914741D01*
X97957176Y-67154741D02*
X97957176Y-67476400D01*
X95797176Y-67716400D02*
X95917176Y-67716400D01*
X96157176Y-67476400D02*
X96157176Y-67154717D01*
X101752041Y-70717289D02*
X102002711Y-70717289D01*
X97717176Y-66914741D02*
G75*
G02*
X97957159Y-67154741I24J-239959D01*
G01*
X95317176Y-66914741D02*
G75*
G02*
X95557159Y-67154741I24J-239959D01*
G01*
X97117176Y-67716400D02*
G75*
G03*
X97357200Y-67476400I24J240000D01*
G01*
X95557176Y-67476400D02*
G75*
G03*
X95797176Y-67716424I240024J0D01*
G01*
X95917176Y-67716400D02*
G75*
G03*
X96157200Y-67476400I24J240000D01*
G01*
X94717176Y-67716400D02*
G75*
G03*
X94957200Y-67476400I24J240000D01*
G01*
X96157176Y-67154717D02*
G75*
G02*
X96397176Y-66914676I240024J17D01*
G01*
X97957176Y-67476400D02*
G75*
G03*
X98197176Y-67716424I240024J0D01*
G01*
X96517176Y-66914717D02*
G75*
G02*
X96757183Y-67154717I24J-239983D01*
G01*
X94957176Y-67154741D02*
G75*
G02*
X95197176Y-66914676I240024J41D01*
G01*
X96757176Y-67476400D02*
G75*
G03*
X96997176Y-67716424I240024J0D01*
G01*
X97357176Y-67154741D02*
G75*
G02*
X97597176Y-66914676I240024J41D01*
G01*
G04 #@! TO.N,/CEC*
D20*
X100065000Y-79785000D02*
X98700000Y-78420000D01*
X97600000Y-74187500D02*
X98687500Y-74187500D01*
X99000000Y-72100000D02*
X107000000Y-72100000D01*
X110141500Y-75241500D02*
X110700000Y-75241500D01*
X98700000Y-72400000D02*
X99000000Y-72100000D01*
X98700000Y-74200000D02*
X98700000Y-72400000D01*
X98700000Y-78420000D02*
X98700000Y-74200000D01*
X107000000Y-72100000D02*
X110141500Y-75241500D01*
X98687500Y-74187500D02*
X98700000Y-74200000D01*
G04 #@! TO.N,/HEAC+*
X99400000Y-72500000D02*
X106800000Y-72500000D01*
X101100000Y-80820000D02*
X101100000Y-80289942D01*
X99100000Y-77280058D02*
X99100000Y-72800000D01*
X101105501Y-80284441D02*
X101105501Y-79285559D01*
X110050000Y-75750000D02*
X111300000Y-75750000D01*
X99100000Y-72800000D02*
X99400000Y-72500000D01*
X101105501Y-79285559D02*
X99100000Y-77280058D01*
X101100000Y-80289942D02*
X101105501Y-80284441D01*
X106800000Y-72500000D02*
X110050000Y-75750000D01*
X102605000Y-82325000D02*
X101100000Y-80820000D01*
G04 #@! TO.N,/SCL*
X102300000Y-79480000D02*
X102605000Y-79785000D01*
X100100000Y-74187500D02*
X101087500Y-74187500D01*
X101100000Y-73200000D02*
X101400000Y-72900000D01*
X101100000Y-78280000D02*
X101100000Y-73200000D01*
X106600000Y-72900000D02*
X109941488Y-76241488D01*
X102605000Y-79785000D02*
X101100000Y-78280000D01*
X109941488Y-76241488D02*
X110700000Y-76241488D01*
X101400000Y-72900000D02*
X106600000Y-72900000D01*
G04 #@! TO.N,/SDA*
X109831989Y-76731989D02*
X111268011Y-76731989D01*
X104685000Y-79785000D02*
X105145000Y-79785000D01*
X103700000Y-77800000D02*
X103700000Y-77159224D01*
X103700000Y-74200000D02*
X103700000Y-73700000D01*
X104535000Y-79785000D02*
X105145000Y-79785000D01*
X103700000Y-77159224D02*
X103700000Y-74200000D01*
X105145000Y-79245000D02*
X103700000Y-77800000D01*
X104100000Y-73300000D02*
X106400000Y-73300000D01*
X102600000Y-74187500D02*
X103687500Y-74187500D01*
X105145000Y-79785000D02*
X105145000Y-79245000D01*
X106400000Y-73300000D02*
X109831989Y-76731989D01*
X103700000Y-73700000D02*
X104100000Y-73300000D01*
X111268011Y-76731989D02*
X111300000Y-76700000D01*
X103687500Y-74187500D02*
X103700000Y-74200000D01*
G04 #@! TO.N,/HEAC-*
X104000000Y-74400000D02*
X104000000Y-77000000D01*
X105200000Y-74187500D02*
X104212500Y-74187500D01*
X105987500Y-74187500D02*
X110050000Y-78250000D01*
X104000000Y-77000000D02*
X106300000Y-79300000D01*
X106300000Y-79300000D02*
X106300000Y-81170000D01*
X105100000Y-74187500D02*
X105987500Y-74187500D01*
X106300000Y-81170000D02*
X105145000Y-82325000D01*
X104212500Y-74187500D02*
X104000000Y-74400000D01*
X110050000Y-78250000D02*
X110700000Y-78250000D01*
G04 #@! TO.N,+3.3V*
D21*
X91227002Y-80400000D02*
X91211001Y-80416001D01*
X91211400Y-80416400D02*
X88671400Y-80416400D01*
X96910000Y-80400000D02*
X91227002Y-80400000D01*
X97525000Y-76087500D02*
X97600000Y-76012500D01*
X97525000Y-79785000D02*
X97525000Y-76087500D01*
X97525000Y-79785000D02*
X96910000Y-80400000D01*
G04 #@! TD*
G04 #@! TA.AperFunction,Conductor*
G04 #@! TO.N,+5V*
G36*
X99208514Y-68718306D02*
G01*
X101312765Y-70822557D01*
X101331071Y-70866751D01*
X101322698Y-70898001D01*
X101275210Y-70980251D01*
X101251190Y-71069896D01*
X101251189Y-71069904D01*
X101251189Y-71162717D01*
X101251190Y-71162725D01*
X101275210Y-71252370D01*
X101275211Y-71252373D01*
X101321618Y-71332750D01*
X101321623Y-71332756D01*
X101387243Y-71398376D01*
X101387249Y-71398381D01*
X101467626Y-71444788D01*
X101467629Y-71444789D01*
X101557281Y-71468811D01*
X101557282Y-71468811D01*
X101650096Y-71468811D01*
X101650097Y-71468811D01*
X101739749Y-71444789D01*
X101820129Y-71398381D01*
X101885759Y-71332751D01*
X101932167Y-71252371D01*
X101947882Y-71193720D01*
X110272500Y-71193720D01*
X110272500Y-71306279D01*
X110272501Y-71306287D01*
X110301632Y-71415008D01*
X110301633Y-71415011D01*
X110357914Y-71512490D01*
X110357919Y-71512496D01*
X110437503Y-71592080D01*
X110437509Y-71592085D01*
X110534988Y-71648366D01*
X110534991Y-71648367D01*
X110643719Y-71677500D01*
X110643720Y-71677500D01*
X110756280Y-71677500D01*
X110756281Y-71677500D01*
X110865009Y-71648367D01*
X110962491Y-71592085D01*
X111042085Y-71512491D01*
X111098367Y-71415009D01*
X111127500Y-71306281D01*
X111127500Y-71193719D01*
X111098367Y-71084991D01*
X111098366Y-71084988D01*
X111042085Y-70987509D01*
X111042080Y-70987503D01*
X110962496Y-70907919D01*
X110962490Y-70907914D01*
X110865011Y-70851633D01*
X110865008Y-70851632D01*
X110756287Y-70822501D01*
X110756282Y-70822500D01*
X110756281Y-70822500D01*
X110643719Y-70822500D01*
X110643718Y-70822500D01*
X110643712Y-70822501D01*
X110534991Y-70851632D01*
X110534988Y-70851633D01*
X110437509Y-70907914D01*
X110437503Y-70907919D01*
X110357919Y-70987503D01*
X110357914Y-70987509D01*
X110301633Y-71084988D01*
X110301632Y-71084991D01*
X110272501Y-71193712D01*
X110272500Y-71193720D01*
X101947882Y-71193720D01*
X101956189Y-71162719D01*
X101956189Y-71129569D01*
X101956426Y-71126855D01*
X101966303Y-71107871D01*
X101974495Y-71088095D01*
X101977169Y-71086987D01*
X101978505Y-71084420D01*
X101998913Y-71077980D01*
X102018689Y-71069789D01*
X102049118Y-71069789D01*
X102049119Y-71069789D01*
X102138771Y-71045767D01*
X102219151Y-70999359D01*
X102284781Y-70933729D01*
X102331189Y-70853349D01*
X102355211Y-70763697D01*
X102355211Y-70670881D01*
X102331189Y-70581229D01*
X102331188Y-70581226D01*
X102284781Y-70500849D01*
X102284776Y-70500843D01*
X102219156Y-70435223D01*
X102219150Y-70435218D01*
X102138773Y-70388811D01*
X102138770Y-70388810D01*
X102049125Y-70364790D01*
X102049120Y-70364789D01*
X102049119Y-70364789D01*
X101956303Y-70364789D01*
X101956302Y-70364789D01*
X101956296Y-70364790D01*
X101866651Y-70388810D01*
X101784401Y-70436298D01*
X101736975Y-70442541D01*
X101708957Y-70426365D01*
X101026312Y-69743720D01*
X110272500Y-69743720D01*
X110272500Y-69856279D01*
X110272501Y-69856287D01*
X110301632Y-69965008D01*
X110301633Y-69965011D01*
X110357914Y-70062490D01*
X110357919Y-70062496D01*
X110437503Y-70142080D01*
X110437509Y-70142085D01*
X110534988Y-70198366D01*
X110534991Y-70198367D01*
X110643719Y-70227500D01*
X110643720Y-70227500D01*
X110756280Y-70227500D01*
X110756281Y-70227500D01*
X110865009Y-70198367D01*
X110962491Y-70142085D01*
X111042085Y-70062491D01*
X111098367Y-69965009D01*
X111127500Y-69856281D01*
X111127500Y-69743719D01*
X111098367Y-69634991D01*
X111098366Y-69634988D01*
X111042085Y-69537509D01*
X111042080Y-69537503D01*
X110962496Y-69457919D01*
X110962490Y-69457914D01*
X110865011Y-69401633D01*
X110865008Y-69401632D01*
X110756287Y-69372501D01*
X110756282Y-69372500D01*
X110756281Y-69372500D01*
X110643719Y-69372500D01*
X110643718Y-69372500D01*
X110643712Y-69372501D01*
X110534991Y-69401632D01*
X110534988Y-69401633D01*
X110437509Y-69457914D01*
X110437503Y-69457919D01*
X110357919Y-69537503D01*
X110357914Y-69537509D01*
X110301633Y-69634988D01*
X110301632Y-69634991D01*
X110272501Y-69743712D01*
X110272500Y-69743720D01*
X101026312Y-69743720D01*
X100089286Y-68806694D01*
X100070980Y-68762500D01*
X100089286Y-68718306D01*
X100133480Y-68700000D01*
X112037500Y-68700000D01*
X112081694Y-68718306D01*
X112100000Y-68762500D01*
X112100000Y-84118095D01*
X112081694Y-84162289D01*
X112037502Y-84180595D01*
X95462502Y-84181116D01*
X95418307Y-84162812D01*
X95400000Y-84118618D01*
X95400000Y-81449982D01*
X96421000Y-81449982D01*
X96421000Y-82150000D01*
X97054254Y-82150000D01*
X97025000Y-82259174D01*
X97025000Y-82390826D01*
X97054254Y-82500000D01*
X96421001Y-82500000D01*
X96421001Y-83200018D01*
X96435736Y-83274104D01*
X96435738Y-83274108D01*
X96491876Y-83358123D01*
X96575891Y-83414261D01*
X96575895Y-83414263D01*
X96649982Y-83428999D01*
X97350000Y-83428999D01*
X97350000Y-82795746D01*
X97459174Y-82825000D01*
X97590826Y-82825000D01*
X97700000Y-82795746D01*
X97700000Y-83428999D01*
X98400015Y-83428999D01*
X98400018Y-83428998D01*
X98474104Y-83414263D01*
X98474108Y-83414261D01*
X98558123Y-83358123D01*
X98614261Y-83274108D01*
X98614263Y-83274104D01*
X98628999Y-83200017D01*
X98629000Y-83200017D01*
X98629000Y-82500000D01*
X97995746Y-82500000D01*
X98025000Y-82390826D01*
X98025000Y-82259174D01*
X98016841Y-82228724D01*
X99087500Y-82228724D01*
X99087500Y-82421275D01*
X99125064Y-82610126D01*
X99125066Y-82610134D01*
X99172687Y-82725099D01*
X99198750Y-82788020D01*
X99305726Y-82948120D01*
X99441880Y-83084274D01*
X99601980Y-83191250D01*
X99681299Y-83224105D01*
X99779865Y-83264933D01*
X99779869Y-83264934D01*
X99779874Y-83264936D01*
X99968725Y-83302500D01*
X100161275Y-83302500D01*
X100350126Y-83264936D01*
X100350132Y-83264933D01*
X100350134Y-83264933D01*
X100392611Y-83247337D01*
X100528020Y-83191250D01*
X100688120Y-83084274D01*
X100824274Y-82948120D01*
X100931250Y-82788020D01*
X101004936Y-82610126D01*
X101042500Y-82421275D01*
X101042500Y-82228725D01*
X101004936Y-82039874D01*
X101004934Y-82039869D01*
X101004933Y-82039865D01*
X100957313Y-81924901D01*
X100931250Y-81861980D01*
X100824274Y-81701880D01*
X100688120Y-81565726D01*
X100665339Y-81550504D01*
X100528022Y-81458751D01*
X100528020Y-81458750D01*
X100350134Y-81385066D01*
X100350126Y-81385064D01*
X100161275Y-81347500D01*
X99968725Y-81347500D01*
X99779873Y-81385064D01*
X99779865Y-81385066D01*
X99601979Y-81458750D01*
X99601977Y-81458751D01*
X99441880Y-81565725D01*
X99305725Y-81701880D01*
X99198751Y-81861977D01*
X99198750Y-81861979D01*
X99125066Y-82039865D01*
X99125064Y-82039873D01*
X99087500Y-82228724D01*
X98016841Y-82228724D01*
X97995746Y-82150000D01*
X98628999Y-82150000D01*
X98628999Y-81449985D01*
X98628998Y-81449981D01*
X98614263Y-81375895D01*
X98614261Y-81375891D01*
X98558123Y-81291876D01*
X98474108Y-81235738D01*
X98474104Y-81235736D01*
X98400017Y-81221000D01*
X97700000Y-81221000D01*
X97700000Y-81854253D01*
X97590826Y-81825000D01*
X97459174Y-81825000D01*
X97350000Y-81854253D01*
X97350000Y-81221000D01*
X96649985Y-81221000D01*
X96649981Y-81221001D01*
X96575895Y-81235736D01*
X96575891Y-81235738D01*
X96491876Y-81291876D01*
X96435738Y-81375891D01*
X96435736Y-81375895D01*
X96421000Y-81449982D01*
X95400000Y-81449982D01*
X95400000Y-81090000D01*
X95418306Y-81045806D01*
X95462500Y-81027500D01*
X96971803Y-81027500D01*
X97093035Y-81003386D01*
X97180244Y-80967262D01*
X97207233Y-80956083D01*
X97310008Y-80887411D01*
X97397411Y-80800008D01*
X97416613Y-80780806D01*
X97460807Y-80762500D01*
X97621275Y-80762500D01*
X97810126Y-80724936D01*
X97810132Y-80724933D01*
X97810134Y-80724933D01*
X97877007Y-80697233D01*
X97988020Y-80651250D01*
X98148120Y-80544274D01*
X98284274Y-80408120D01*
X98391250Y-80248020D01*
X98464936Y-80070126D01*
X98502500Y-79881275D01*
X98502500Y-79688725D01*
X98464936Y-79499874D01*
X98464934Y-79499869D01*
X98464933Y-79499865D01*
X98391252Y-79321986D01*
X98391250Y-79321980D01*
X98284274Y-79161880D01*
X98170806Y-79048412D01*
X98152500Y-79004218D01*
X98152500Y-76684101D01*
X98170806Y-76639907D01*
X98187545Y-76627953D01*
X98272390Y-76586476D01*
X98361476Y-76497390D01*
X98390351Y-76438324D01*
X98426206Y-76406663D01*
X98473950Y-76409626D01*
X98505613Y-76445482D01*
X98509000Y-76465776D01*
X98509000Y-78382008D01*
X98509000Y-78457992D01*
X98514906Y-78472250D01*
X98538077Y-78528191D01*
X98538079Y-78528194D01*
X99215798Y-79205913D01*
X99234104Y-79250107D01*
X99223572Y-79284829D01*
X99198749Y-79321980D01*
X99198746Y-79321986D01*
X99125066Y-79499865D01*
X99125064Y-79499873D01*
X99087500Y-79688724D01*
X99087500Y-79881275D01*
X99125064Y-80070126D01*
X99125066Y-80070134D01*
X99198750Y-80248020D01*
X99198751Y-80248022D01*
X99295493Y-80392806D01*
X99305726Y-80408120D01*
X99441880Y-80544274D01*
X99601980Y-80651250D01*
X99681299Y-80684105D01*
X99779865Y-80724933D01*
X99779869Y-80724934D01*
X99779874Y-80724936D01*
X99968725Y-80762500D01*
X100161275Y-80762500D01*
X100350126Y-80724936D01*
X100350132Y-80724933D01*
X100350134Y-80724933D01*
X100417007Y-80697233D01*
X100528020Y-80651250D01*
X100688120Y-80544274D01*
X100802306Y-80430088D01*
X100846500Y-80411782D01*
X100890694Y-80430088D01*
X100909000Y-80474282D01*
X100909000Y-80857991D01*
X100938077Y-80928191D01*
X100938079Y-80928194D01*
X101755798Y-81745913D01*
X101774104Y-81790107D01*
X101763572Y-81824829D01*
X101738749Y-81861980D01*
X101738746Y-81861986D01*
X101665066Y-82039865D01*
X101665064Y-82039873D01*
X101627500Y-82228724D01*
X101627500Y-82421275D01*
X101665064Y-82610126D01*
X101665066Y-82610134D01*
X101712687Y-82725099D01*
X101738750Y-82788020D01*
X101845726Y-82948120D01*
X101981880Y-83084274D01*
X102141980Y-83191250D01*
X102221299Y-83224105D01*
X102319865Y-83264933D01*
X102319869Y-83264934D01*
X102319874Y-83264936D01*
X102508725Y-83302500D01*
X102701275Y-83302500D01*
X102890126Y-83264936D01*
X102890132Y-83264933D01*
X102890134Y-83264933D01*
X102932611Y-83247337D01*
X103068020Y-83191250D01*
X103228120Y-83084274D01*
X103364274Y-82948120D01*
X103471250Y-82788020D01*
X103544936Y-82610126D01*
X103582500Y-82421275D01*
X103582500Y-82228725D01*
X103544936Y-82039874D01*
X103544934Y-82039869D01*
X103544933Y-82039865D01*
X103497313Y-81924901D01*
X103471250Y-81861980D01*
X103364274Y-81701880D01*
X103228120Y-81565726D01*
X103205339Y-81550504D01*
X103068022Y-81458751D01*
X103068020Y-81458750D01*
X102890134Y-81385066D01*
X102890126Y-81385064D01*
X102701275Y-81347500D01*
X102508725Y-81347500D01*
X102319873Y-81385064D01*
X102319865Y-81385066D01*
X102141986Y-81458746D01*
X102141980Y-81458749D01*
X102104829Y-81483572D01*
X102057912Y-81492903D01*
X102025913Y-81475798D01*
X101309306Y-80759191D01*
X101291000Y-80714997D01*
X101291000Y-80348145D01*
X101295758Y-80324226D01*
X101296501Y-80322432D01*
X101296501Y-79247569D01*
X101296501Y-79247567D01*
X101267423Y-79177366D01*
X101213694Y-79123637D01*
X99309306Y-77219249D01*
X99291000Y-77175055D01*
X99291000Y-76760690D01*
X99309306Y-76716496D01*
X99353500Y-76698190D01*
X99390956Y-76710657D01*
X99405972Y-76721898D01*
X99405971Y-76721898D01*
X99541763Y-76772546D01*
X99601788Y-76778999D01*
X99925000Y-76778999D01*
X99925000Y-75246000D01*
X99601797Y-75246000D01*
X99601780Y-75246001D01*
X99541765Y-75252453D01*
X99541760Y-75252454D01*
X99405977Y-75303099D01*
X99405968Y-75303104D01*
X99390954Y-75314344D01*
X99344605Y-75326174D01*
X99303466Y-75301764D01*
X99291000Y-75264310D01*
X99291000Y-74775754D01*
X99309306Y-74731560D01*
X99353500Y-74713254D01*
X99397694Y-74731560D01*
X99427610Y-74761476D01*
X99540795Y-74816809D01*
X99614172Y-74827500D01*
X99614173Y-74827500D01*
X100585827Y-74827500D01*
X100585828Y-74827500D01*
X100659205Y-74816809D01*
X100772390Y-74761476D01*
X100802306Y-74731560D01*
X100846500Y-74713254D01*
X100890694Y-74731560D01*
X100909000Y-74775754D01*
X100909000Y-75264310D01*
X100890694Y-75308504D01*
X100846500Y-75326810D01*
X100809046Y-75314344D01*
X100794031Y-75303104D01*
X100794022Y-75303099D01*
X100658236Y-75252453D01*
X100598218Y-75246000D01*
X100275000Y-75246000D01*
X100275000Y-76778999D01*
X100598203Y-76778999D01*
X100598219Y-76778998D01*
X100658234Y-76772546D01*
X100658239Y-76772545D01*
X100794027Y-76721898D01*
X100809044Y-76710657D01*
X100855394Y-76698826D01*
X100896533Y-76723234D01*
X100909000Y-76760690D01*
X100909000Y-78317991D01*
X100938077Y-78388191D01*
X100938079Y-78388194D01*
X101755798Y-79205913D01*
X101774104Y-79250107D01*
X101763572Y-79284829D01*
X101738749Y-79321980D01*
X101738746Y-79321986D01*
X101665066Y-79499865D01*
X101665064Y-79499873D01*
X101627500Y-79688724D01*
X101627500Y-79881275D01*
X101665064Y-80070126D01*
X101665066Y-80070134D01*
X101738750Y-80248020D01*
X101738751Y-80248022D01*
X101835493Y-80392806D01*
X101845726Y-80408120D01*
X101981880Y-80544274D01*
X102141980Y-80651250D01*
X102221299Y-80684105D01*
X102319865Y-80724933D01*
X102319869Y-80724934D01*
X102319874Y-80724936D01*
X102508725Y-80762500D01*
X102701275Y-80762500D01*
X102890126Y-80724936D01*
X102890132Y-80724933D01*
X102890134Y-80724933D01*
X102957007Y-80697233D01*
X103068020Y-80651250D01*
X103228120Y-80544274D01*
X103364274Y-80408120D01*
X103471250Y-80248020D01*
X103544936Y-80070126D01*
X103582500Y-79881275D01*
X103582500Y-79688725D01*
X103544936Y-79499874D01*
X103544934Y-79499869D01*
X103544933Y-79499865D01*
X103471252Y-79321986D01*
X103471250Y-79321980D01*
X103364274Y-79161880D01*
X103228120Y-79025726D01*
X103228119Y-79025725D01*
X103068022Y-78918751D01*
X103068020Y-78918750D01*
X102890134Y-78845066D01*
X102890126Y-78845064D01*
X102701275Y-78807500D01*
X102508725Y-78807500D01*
X102319873Y-78845064D01*
X102319865Y-78845066D01*
X102141986Y-78918746D01*
X102141980Y-78918749D01*
X102104829Y-78943572D01*
X102057912Y-78952903D01*
X102025913Y-78935798D01*
X101309306Y-78219191D01*
X101291000Y-78174997D01*
X101291000Y-76323219D01*
X101646001Y-76323219D01*
X101652453Y-76383234D01*
X101652454Y-76383239D01*
X101703099Y-76519022D01*
X101703102Y-76519027D01*
X101789953Y-76635046D01*
X101905972Y-76721897D01*
X101905977Y-76721900D01*
X102041763Y-76772546D01*
X102101788Y-76778999D01*
X102425000Y-76778999D01*
X102425000Y-76187500D01*
X101646001Y-76187500D01*
X101646001Y-76323219D01*
X101291000Y-76323219D01*
X101291000Y-75701781D01*
X101646000Y-75701781D01*
X101646000Y-75837500D01*
X102425000Y-75837500D01*
X102425000Y-75246000D01*
X102101797Y-75246000D01*
X102101780Y-75246001D01*
X102041765Y-75252453D01*
X102041760Y-75252454D01*
X101905977Y-75303099D01*
X101905972Y-75303102D01*
X101789953Y-75389953D01*
X101703102Y-75505972D01*
X101703099Y-75505977D01*
X101652453Y-75641763D01*
X101646000Y-75701781D01*
X101291000Y-75701781D01*
X101291000Y-73305003D01*
X101309306Y-73260809D01*
X101460809Y-73109306D01*
X101505003Y-73091000D01*
X103887997Y-73091000D01*
X103932191Y-73109306D01*
X103950497Y-73153500D01*
X103932191Y-73197694D01*
X103583016Y-73546868D01*
X103583015Y-73546868D01*
X103583016Y-73546869D01*
X103538077Y-73591808D01*
X103509000Y-73662008D01*
X103509000Y-73734223D01*
X103490694Y-73778417D01*
X103446500Y-73796723D01*
X103402306Y-73778417D01*
X103390351Y-73761673D01*
X103361478Y-73702613D01*
X103361476Y-73702610D01*
X103272390Y-73613524D01*
X103191121Y-73573794D01*
X103159205Y-73558191D01*
X103159203Y-73558190D01*
X103159202Y-73558190D01*
X103100914Y-73549698D01*
X103085828Y-73547500D01*
X102114172Y-73547500D01*
X102101658Y-73549323D01*
X102040797Y-73558190D01*
X101927609Y-73613524D01*
X101838524Y-73702609D01*
X101783190Y-73815797D01*
X101772500Y-73889172D01*
X101772500Y-74485827D01*
X101783190Y-74559202D01*
X101783190Y-74559203D01*
X101783191Y-74559205D01*
X101838524Y-74672390D01*
X101927610Y-74761476D01*
X102040795Y-74816809D01*
X102114172Y-74827500D01*
X102114173Y-74827500D01*
X103085827Y-74827500D01*
X103085828Y-74827500D01*
X103159205Y-74816809D01*
X103272390Y-74761476D01*
X103361476Y-74672390D01*
X103390351Y-74613324D01*
X103426206Y-74581663D01*
X103473950Y-74584626D01*
X103505613Y-74620482D01*
X103509000Y-74640776D01*
X103509000Y-75339169D01*
X103490694Y-75383363D01*
X103446500Y-75401669D01*
X103409045Y-75389203D01*
X103294027Y-75303102D01*
X103294022Y-75303099D01*
X103158236Y-75252453D01*
X103098218Y-75246000D01*
X102775000Y-75246000D01*
X102775000Y-76778999D01*
X103098203Y-76778999D01*
X103098219Y-76778998D01*
X103158234Y-76772546D01*
X103158239Y-76772545D01*
X103294022Y-76721900D01*
X103294027Y-76721897D01*
X103409045Y-76635796D01*
X103455394Y-76623966D01*
X103496534Y-76648375D01*
X103509000Y-76685830D01*
X103509000Y-77121232D01*
X103509000Y-77762008D01*
X103509000Y-77837992D01*
X103529560Y-77887629D01*
X103538077Y-77908191D01*
X103538079Y-77908194D01*
X104548194Y-78918309D01*
X104566500Y-78962503D01*
X104548194Y-79006697D01*
X104538726Y-79014468D01*
X104521884Y-79025722D01*
X104521880Y-79025725D01*
X104385725Y-79161880D01*
X104278751Y-79321977D01*
X104278750Y-79321979D01*
X104205066Y-79499865D01*
X104205064Y-79499873D01*
X104167500Y-79688724D01*
X104167500Y-79881275D01*
X104205064Y-80070126D01*
X104205066Y-80070134D01*
X104278750Y-80248020D01*
X104278751Y-80248022D01*
X104375493Y-80392806D01*
X104385726Y-80408120D01*
X104521880Y-80544274D01*
X104681980Y-80651250D01*
X104761299Y-80684105D01*
X104859865Y-80724933D01*
X104859869Y-80724934D01*
X104859874Y-80724936D01*
X105048725Y-80762500D01*
X105241275Y-80762500D01*
X105430126Y-80724936D01*
X105430132Y-80724933D01*
X105430134Y-80724933D01*
X105497007Y-80697233D01*
X105608020Y-80651250D01*
X105768120Y-80544274D01*
X105904274Y-80408120D01*
X105994533Y-80273037D01*
X106034307Y-80246462D01*
X106081223Y-80255794D01*
X106107799Y-80295568D01*
X106109000Y-80307761D01*
X106109000Y-81064996D01*
X106090694Y-81109190D01*
X105724085Y-81475798D01*
X105679891Y-81494104D01*
X105645168Y-81483571D01*
X105608023Y-81458751D01*
X105608020Y-81458750D01*
X105430134Y-81385066D01*
X105430126Y-81385064D01*
X105241275Y-81347500D01*
X105048725Y-81347500D01*
X104859873Y-81385064D01*
X104859865Y-81385066D01*
X104681979Y-81458750D01*
X104681977Y-81458751D01*
X104521880Y-81565725D01*
X104385725Y-81701880D01*
X104278751Y-81861977D01*
X104278750Y-81861979D01*
X104205066Y-82039865D01*
X104205064Y-82039873D01*
X104167500Y-82228724D01*
X104167500Y-82421275D01*
X104205064Y-82610126D01*
X104205066Y-82610134D01*
X104252687Y-82725099D01*
X104278750Y-82788020D01*
X104385726Y-82948120D01*
X104521880Y-83084274D01*
X104681980Y-83191250D01*
X104761299Y-83224105D01*
X104859865Y-83264933D01*
X104859869Y-83264934D01*
X104859874Y-83264936D01*
X105048725Y-83302500D01*
X105241275Y-83302500D01*
X105430126Y-83264936D01*
X105430132Y-83264933D01*
X105430134Y-83264933D01*
X105472611Y-83247337D01*
X105608020Y-83191250D01*
X105768120Y-83084274D01*
X105904274Y-82948120D01*
X106011250Y-82788020D01*
X106084936Y-82610126D01*
X106122500Y-82421275D01*
X106122500Y-82228725D01*
X106084936Y-82039874D01*
X106084934Y-82039869D01*
X106084933Y-82039865D01*
X106037313Y-81924901D01*
X106011250Y-81861980D01*
X105986426Y-81824829D01*
X105977095Y-81777914D01*
X105994198Y-81745915D01*
X106461922Y-81278193D01*
X106491000Y-81207992D01*
X106491000Y-81132008D01*
X106491000Y-80954359D01*
X108736900Y-80954359D01*
X108736900Y-81159596D01*
X108776939Y-81360887D01*
X108855480Y-81550504D01*
X108969503Y-81721149D01*
X109114628Y-81866274D01*
X109285273Y-81980297D01*
X109285274Y-81980297D01*
X109285275Y-81980298D01*
X109474889Y-82058838D01*
X109676182Y-82098878D01*
X109881418Y-82098878D01*
X110082711Y-82058838D01*
X110272325Y-81980298D01*
X110442972Y-81866274D01*
X110588096Y-81721150D01*
X110702120Y-81550503D01*
X110780660Y-81360889D01*
X110820700Y-81159596D01*
X110820700Y-80954360D01*
X110780660Y-80753067D01*
X110702120Y-80563453D01*
X110588096Y-80392806D01*
X110442972Y-80247682D01*
X110442971Y-80247681D01*
X110272326Y-80133658D01*
X110082709Y-80055117D01*
X109881418Y-80015078D01*
X109676182Y-80015078D01*
X109474890Y-80055117D01*
X109285273Y-80133658D01*
X109114628Y-80247681D01*
X108969503Y-80392806D01*
X108855480Y-80563451D01*
X108776939Y-80753068D01*
X108736900Y-80954359D01*
X106491000Y-80954359D01*
X106491000Y-79262008D01*
X106461922Y-79191807D01*
X106408193Y-79138078D01*
X105004309Y-77734194D01*
X104986003Y-77690000D01*
X105004309Y-77645806D01*
X105048503Y-77627500D01*
X105156280Y-77627500D01*
X105156281Y-77627500D01*
X105265009Y-77598367D01*
X105362491Y-77542085D01*
X105442085Y-77462491D01*
X105498367Y-77365009D01*
X105527500Y-77256281D01*
X105527500Y-77143719D01*
X105498367Y-77034991D01*
X105498366Y-77034988D01*
X105442085Y-76937509D01*
X105442080Y-76937503D01*
X105362496Y-76857919D01*
X105362487Y-76857912D01*
X105322250Y-76834681D01*
X105293130Y-76796731D01*
X105291000Y-76780555D01*
X105291000Y-76715000D01*
X105309306Y-76670806D01*
X105353500Y-76652500D01*
X105585827Y-76652500D01*
X105585828Y-76652500D01*
X105659205Y-76641809D01*
X105772390Y-76586476D01*
X105861476Y-76497390D01*
X105916809Y-76384205D01*
X105927500Y-76310828D01*
X105927500Y-75714172D01*
X105916809Y-75640795D01*
X105861476Y-75527610D01*
X105772390Y-75438524D01*
X105659205Y-75383191D01*
X105659203Y-75383190D01*
X105659202Y-75383190D01*
X105600914Y-75374698D01*
X105585828Y-75372500D01*
X104614172Y-75372500D01*
X104601658Y-75374323D01*
X104540797Y-75383190D01*
X104427609Y-75438524D01*
X104338523Y-75527610D01*
X104338521Y-75527613D01*
X104309649Y-75586673D01*
X104273794Y-75618337D01*
X104226050Y-75615372D01*
X104194386Y-75579517D01*
X104191000Y-75559223D01*
X104191000Y-74640776D01*
X104209306Y-74596582D01*
X104253500Y-74578276D01*
X104297694Y-74596582D01*
X104309647Y-74613322D01*
X104338524Y-74672390D01*
X104427610Y-74761476D01*
X104540795Y-74816809D01*
X104614172Y-74827500D01*
X104614173Y-74827500D01*
X105585827Y-74827500D01*
X105585828Y-74827500D01*
X105659205Y-74816809D01*
X105772390Y-74761476D01*
X105861476Y-74672390D01*
X105916809Y-74559205D01*
X105920758Y-74532096D01*
X105945244Y-74491004D01*
X105991615Y-74479261D01*
X106026799Y-74496914D01*
X109888078Y-78358193D01*
X109941807Y-78411922D01*
X110012008Y-78441000D01*
X110280555Y-78441000D01*
X110324749Y-78459306D01*
X110334681Y-78472250D01*
X110357912Y-78512487D01*
X110357919Y-78512496D01*
X110437503Y-78592080D01*
X110437509Y-78592085D01*
X110534988Y-78648366D01*
X110534991Y-78648367D01*
X110643719Y-78677500D01*
X110643720Y-78677500D01*
X110756280Y-78677500D01*
X110756281Y-78677500D01*
X110865009Y-78648367D01*
X110962491Y-78592085D01*
X111042085Y-78512491D01*
X111098367Y-78415009D01*
X111127500Y-78306281D01*
X111127500Y-78193719D01*
X111098367Y-78084991D01*
X111098366Y-78084988D01*
X111042085Y-77987509D01*
X111042080Y-77987503D01*
X110962496Y-77907919D01*
X110962490Y-77907914D01*
X110865011Y-77851633D01*
X110865008Y-77851632D01*
X110756287Y-77822501D01*
X110756282Y-77822500D01*
X110756281Y-77822500D01*
X110643719Y-77822500D01*
X110643718Y-77822500D01*
X110643712Y-77822501D01*
X110534991Y-77851632D01*
X110534988Y-77851633D01*
X110437509Y-77907914D01*
X110437503Y-77907919D01*
X110357919Y-77987503D01*
X110357912Y-77987512D01*
X110334681Y-78027750D01*
X110296731Y-78056870D01*
X110280555Y-78059000D01*
X110155003Y-78059000D01*
X110110809Y-78040694D01*
X106095694Y-74025579D01*
X106095693Y-74025578D01*
X106025492Y-73996500D01*
X106025491Y-73996500D01*
X105990000Y-73996500D01*
X105945806Y-73978194D01*
X105927500Y-73934000D01*
X105927500Y-73889172D01*
X105916809Y-73815795D01*
X105861476Y-73702610D01*
X105772390Y-73613524D01*
X105772389Y-73613523D01*
X105772386Y-73613521D01*
X105764465Y-73609649D01*
X105732801Y-73573794D01*
X105735766Y-73526050D01*
X105771621Y-73494386D01*
X105791915Y-73491000D01*
X106294997Y-73491000D01*
X106339191Y-73509306D01*
X109723796Y-76893911D01*
X109793997Y-76922989D01*
X109869981Y-76922989D01*
X110286912Y-76922989D01*
X110331106Y-76941295D01*
X110349412Y-76985489D01*
X110341038Y-77016739D01*
X110301635Y-77084985D01*
X110301632Y-77084991D01*
X110272501Y-77193712D01*
X110272500Y-77193720D01*
X110272500Y-77306279D01*
X110272501Y-77306287D01*
X110301632Y-77415008D01*
X110301633Y-77415011D01*
X110357914Y-77512490D01*
X110357919Y-77512496D01*
X110437503Y-77592080D01*
X110437509Y-77592085D01*
X110534988Y-77648366D01*
X110534991Y-77648367D01*
X110643719Y-77677500D01*
X110643720Y-77677500D01*
X110756280Y-77677500D01*
X110756281Y-77677500D01*
X110865009Y-77648367D01*
X110962491Y-77592085D01*
X111042085Y-77512491D01*
X111098367Y-77415009D01*
X111127500Y-77306281D01*
X111127500Y-77193719D01*
X111127414Y-77193398D01*
X111127435Y-77193232D01*
X111126965Y-77189655D01*
X111127923Y-77189528D01*
X111133654Y-77145971D01*
X111171602Y-77116848D01*
X111203959Y-77116847D01*
X111235070Y-77125182D01*
X111243719Y-77127500D01*
X111243720Y-77127500D01*
X111356280Y-77127500D01*
X111356281Y-77127500D01*
X111465009Y-77098367D01*
X111562491Y-77042085D01*
X111642085Y-76962491D01*
X111698367Y-76865009D01*
X111727500Y-76756281D01*
X111727500Y-76643719D01*
X111698367Y-76534991D01*
X111698366Y-76534988D01*
X111642085Y-76437509D01*
X111642080Y-76437503D01*
X111562496Y-76357919D01*
X111562490Y-76357914D01*
X111465011Y-76301633D01*
X111465008Y-76301632D01*
X111404315Y-76285370D01*
X111366364Y-76256250D01*
X111360121Y-76208824D01*
X111389241Y-76170873D01*
X111404315Y-76164630D01*
X111441208Y-76154744D01*
X111465009Y-76148367D01*
X111562491Y-76092085D01*
X111642085Y-76012491D01*
X111698367Y-75915009D01*
X111727500Y-75806281D01*
X111727500Y-75693719D01*
X111698367Y-75584991D01*
X111698366Y-75584988D01*
X111642085Y-75487509D01*
X111642080Y-75487503D01*
X111562496Y-75407919D01*
X111562490Y-75407914D01*
X111465011Y-75351633D01*
X111465008Y-75351632D01*
X111356287Y-75322501D01*
X111356282Y-75322500D01*
X111356281Y-75322500D01*
X111243719Y-75322500D01*
X111243717Y-75322500D01*
X111206175Y-75332559D01*
X111158749Y-75326314D01*
X111129629Y-75288363D01*
X111127500Y-75272188D01*
X111127500Y-75185220D01*
X111127498Y-75185212D01*
X111098367Y-75076491D01*
X111098366Y-75076488D01*
X111042085Y-74979009D01*
X111042080Y-74979003D01*
X110962496Y-74899419D01*
X110962490Y-74899414D01*
X110865011Y-74843133D01*
X110865008Y-74843132D01*
X110756287Y-74814001D01*
X110756282Y-74814000D01*
X110756281Y-74814000D01*
X110643719Y-74814000D01*
X110643718Y-74814000D01*
X110643712Y-74814001D01*
X110534991Y-74843132D01*
X110534988Y-74843133D01*
X110437509Y-74899414D01*
X110437503Y-74899419D01*
X110357919Y-74979003D01*
X110357912Y-74979012D01*
X110334681Y-75019250D01*
X110296731Y-75048370D01*
X110280555Y-75050500D01*
X110246503Y-75050500D01*
X110202309Y-75032194D01*
X109363835Y-74193720D01*
X110272500Y-74193720D01*
X110272500Y-74306279D01*
X110272501Y-74306287D01*
X110301632Y-74415008D01*
X110301633Y-74415011D01*
X110357914Y-74512490D01*
X110357919Y-74512496D01*
X110437503Y-74592080D01*
X110437509Y-74592085D01*
X110534988Y-74648366D01*
X110534991Y-74648367D01*
X110643719Y-74677500D01*
X110643720Y-74677500D01*
X110756280Y-74677500D01*
X110756281Y-74677500D01*
X110865009Y-74648367D01*
X110962491Y-74592085D01*
X111042085Y-74512491D01*
X111098367Y-74415009D01*
X111127500Y-74306281D01*
X111127500Y-74193719D01*
X111098367Y-74084991D01*
X111098366Y-74084988D01*
X111042085Y-73987509D01*
X111042080Y-73987503D01*
X110962496Y-73907919D01*
X110962490Y-73907914D01*
X110865011Y-73851633D01*
X110865008Y-73851632D01*
X110756287Y-73822501D01*
X110756282Y-73822500D01*
X110756281Y-73822500D01*
X110643719Y-73822500D01*
X110643718Y-73822500D01*
X110643712Y-73822501D01*
X110534991Y-73851632D01*
X110534988Y-73851633D01*
X110437509Y-73907914D01*
X110437503Y-73907919D01*
X110357919Y-73987503D01*
X110357914Y-73987509D01*
X110301633Y-74084988D01*
X110301632Y-74084991D01*
X110272501Y-74193712D01*
X110272500Y-74193720D01*
X109363835Y-74193720D01*
X107863835Y-72693720D01*
X110272500Y-72693720D01*
X110272500Y-72806279D01*
X110272501Y-72806287D01*
X110301632Y-72915008D01*
X110301633Y-72915011D01*
X110357914Y-73012490D01*
X110357919Y-73012496D01*
X110437503Y-73092080D01*
X110437509Y-73092085D01*
X110534988Y-73148366D01*
X110534991Y-73148367D01*
X110643719Y-73177500D01*
X110643720Y-73177500D01*
X110756280Y-73177500D01*
X110756281Y-73177500D01*
X110865009Y-73148367D01*
X110962491Y-73092085D01*
X111042085Y-73012491D01*
X111098367Y-72915009D01*
X111127500Y-72806281D01*
X111127500Y-72693719D01*
X111098367Y-72584991D01*
X111098366Y-72584988D01*
X111042085Y-72487509D01*
X111042080Y-72487503D01*
X110962496Y-72407919D01*
X110962490Y-72407914D01*
X110865011Y-72351633D01*
X110865008Y-72351632D01*
X110756287Y-72322501D01*
X110756282Y-72322500D01*
X110756281Y-72322500D01*
X110643719Y-72322500D01*
X110643718Y-72322500D01*
X110643712Y-72322501D01*
X110534991Y-72351632D01*
X110534988Y-72351633D01*
X110437509Y-72407914D01*
X110437503Y-72407919D01*
X110357919Y-72487503D01*
X110357914Y-72487509D01*
X110301633Y-72584988D01*
X110301632Y-72584991D01*
X110272501Y-72693712D01*
X110272500Y-72693720D01*
X107863835Y-72693720D01*
X107108194Y-71938079D01*
X107108193Y-71938078D01*
X107037992Y-71909000D01*
X99037992Y-71909000D01*
X98962008Y-71909000D01*
X98891808Y-71938077D01*
X98891805Y-71938079D01*
X98538079Y-72291805D01*
X98538077Y-72291808D01*
X98509000Y-72362008D01*
X98509000Y-73734223D01*
X98490694Y-73778417D01*
X98446500Y-73796723D01*
X98402306Y-73778417D01*
X98390351Y-73761673D01*
X98361478Y-73702613D01*
X98361476Y-73702610D01*
X98272390Y-73613524D01*
X98191121Y-73573794D01*
X98159205Y-73558191D01*
X98159203Y-73558190D01*
X98159202Y-73558190D01*
X98100914Y-73549698D01*
X98085828Y-73547500D01*
X97114172Y-73547500D01*
X97101658Y-73549323D01*
X97040797Y-73558190D01*
X96927609Y-73613524D01*
X96838524Y-73702609D01*
X96783190Y-73815797D01*
X96772500Y-73889172D01*
X96772500Y-74485827D01*
X96783190Y-74559202D01*
X96783190Y-74559203D01*
X96783191Y-74559205D01*
X96838524Y-74672390D01*
X96927610Y-74761476D01*
X97040795Y-74816809D01*
X97114172Y-74827500D01*
X97114173Y-74827500D01*
X98085827Y-74827500D01*
X98085828Y-74827500D01*
X98159205Y-74816809D01*
X98272390Y-74761476D01*
X98361476Y-74672390D01*
X98390351Y-74613324D01*
X98426206Y-74581663D01*
X98473950Y-74584626D01*
X98505613Y-74620482D01*
X98509000Y-74640776D01*
X98509000Y-75559223D01*
X98490694Y-75603417D01*
X98446500Y-75621723D01*
X98402306Y-75603417D01*
X98390351Y-75586673D01*
X98361478Y-75527613D01*
X98361476Y-75527610D01*
X98272390Y-75438524D01*
X98260068Y-75432500D01*
X98159205Y-75383191D01*
X98159203Y-75383190D01*
X98159202Y-75383190D01*
X98100914Y-75374698D01*
X98085828Y-75372500D01*
X97114172Y-75372500D01*
X97101658Y-75374323D01*
X97040797Y-75383190D01*
X96927609Y-75438524D01*
X96838524Y-75527609D01*
X96783190Y-75640797D01*
X96772500Y-75714172D01*
X96772500Y-76310827D01*
X96783190Y-76384202D01*
X96783190Y-76384203D01*
X96783191Y-76384205D01*
X96792580Y-76403410D01*
X96838524Y-76497390D01*
X96879194Y-76538060D01*
X96897500Y-76582254D01*
X96897500Y-79004218D01*
X96879194Y-79048412D01*
X96765727Y-79161878D01*
X96765725Y-79161880D01*
X96658751Y-79321977D01*
X96658750Y-79321979D01*
X96585066Y-79499865D01*
X96585064Y-79499873D01*
X96547500Y-79688724D01*
X96547500Y-79710000D01*
X96529194Y-79754194D01*
X96485000Y-79772500D01*
X95462500Y-79772500D01*
X95418306Y-79754194D01*
X95400000Y-79710000D01*
X95400000Y-68762500D01*
X95418306Y-68718306D01*
X95462500Y-68700000D01*
X99164320Y-68700000D01*
X99208514Y-68718306D01*
G37*
G04 #@! TD.AperFunction*
G04 #@! TD*
G04 #@! TA.AperFunction,Conductor*
G04 #@! TO.N,GND*
G36*
X116629433Y-63904307D02*
G01*
X116638225Y-63907948D01*
X116672048Y-63941767D01*
X116675690Y-63950557D01*
X116680450Y-63974481D01*
X116680450Y-84105519D01*
X116675690Y-84129443D01*
X116672048Y-84138233D01*
X116638232Y-84172049D01*
X116629442Y-84175691D01*
X116605520Y-84180451D01*
X112295002Y-84180586D01*
X112250807Y-84162282D01*
X112232500Y-84118088D01*
X112232500Y-81565089D01*
X113510390Y-81565089D01*
X113510390Y-81749015D01*
X113510391Y-81749026D01*
X113538389Y-81925788D01*
X113538389Y-81925793D01*
X113539158Y-81930650D01*
X113595988Y-82105557D01*
X113595990Y-82105560D01*
X113595991Y-82105564D01*
X113595992Y-82105566D01*
X113628832Y-82170017D01*
X113679487Y-82269432D01*
X113738161Y-82350190D01*
X113738162Y-82350191D01*
X114049687Y-82038665D01*
X114093880Y-82020360D01*
X114138074Y-82038666D01*
X114145846Y-82048135D01*
X114165824Y-82078033D01*
X114165825Y-82078034D01*
X114257808Y-82170017D01*
X114257814Y-82170022D01*
X114287702Y-82189992D01*
X114314279Y-82229765D01*
X114304947Y-82276681D01*
X114297174Y-82286153D01*
X113985648Y-82597679D01*
X114066409Y-82656354D01*
X114066411Y-82656355D01*
X114230276Y-82739850D01*
X114230278Y-82739851D01*
X114405187Y-82796682D01*
X114405190Y-82796683D01*
X114410051Y-82797453D01*
X114586821Y-82825451D01*
X114586837Y-82825453D01*
X114770742Y-82825453D01*
X114770743Y-82825453D01*
X114770758Y-82825451D01*
X114952388Y-82796683D01*
X114952389Y-82796683D01*
X115127301Y-82739851D01*
X115127303Y-82739850D01*
X115291162Y-82656359D01*
X115371928Y-82597678D01*
X115060404Y-82286154D01*
X115042098Y-82241960D01*
X115060404Y-82197766D01*
X115069865Y-82190000D01*
X115099770Y-82170019D01*
X115191756Y-82078033D01*
X115211731Y-82048137D01*
X115251502Y-82021562D01*
X115298419Y-82030893D01*
X115307891Y-82038667D01*
X115619415Y-82350191D01*
X115678096Y-82269425D01*
X115761587Y-82105566D01*
X115761588Y-82105564D01*
X115818420Y-81930652D01*
X115818420Y-81930651D01*
X115818591Y-81929566D01*
X115819190Y-81925793D01*
X115819190Y-81925789D01*
X115819190Y-81925788D01*
X115847188Y-81749021D01*
X115847190Y-81749005D01*
X115847190Y-81565100D01*
X115847188Y-81565084D01*
X115819190Y-81388315D01*
X115819190Y-81388312D01*
X115818420Y-81383454D01*
X115800820Y-81329287D01*
X115761588Y-81208541D01*
X115761587Y-81208539D01*
X115678092Y-81044674D01*
X115678091Y-81044672D01*
X115641499Y-80994308D01*
X115619415Y-80963912D01*
X115619414Y-80963911D01*
X115307890Y-81275436D01*
X115263696Y-81293742D01*
X115219502Y-81275436D01*
X115211729Y-81265965D01*
X115191756Y-81236073D01*
X115099771Y-81144088D01*
X115069872Y-81124109D01*
X115043298Y-81084334D01*
X115052631Y-81037418D01*
X115060397Y-81027955D01*
X115371929Y-80716425D01*
X115371928Y-80716424D01*
X115291169Y-80657750D01*
X115239140Y-80631239D01*
X115127303Y-80574255D01*
X115127301Y-80574254D01*
X115127295Y-80574252D01*
X115127293Y-80574251D01*
X114952391Y-80517422D01*
X114952386Y-80517421D01*
X114770771Y-80488655D01*
X114770754Y-80488653D01*
X114770743Y-80488653D01*
X114586837Y-80488653D01*
X114586826Y-80488653D01*
X114586815Y-80488654D01*
X114424112Y-80514424D01*
X114410052Y-80516652D01*
X114410045Y-80516652D01*
X114405191Y-80517421D01*
X114230284Y-80574251D01*
X114066410Y-80657750D01*
X113985649Y-80716425D01*
X114297174Y-81027950D01*
X114315480Y-81072144D01*
X114297174Y-81116338D01*
X114287705Y-81124110D01*
X114257811Y-81144085D01*
X114165822Y-81236074D01*
X114145847Y-81265968D01*
X114106072Y-81292542D01*
X114059156Y-81283209D01*
X114049687Y-81275437D01*
X113738162Y-80963912D01*
X113679487Y-81044673D01*
X113628832Y-81144088D01*
X113597967Y-81204664D01*
X113595988Y-81208547D01*
X113539158Y-81383454D01*
X113538389Y-81388312D01*
X113538389Y-81388316D01*
X113510391Y-81565078D01*
X113510390Y-81565089D01*
X112232500Y-81565089D01*
X112232500Y-68762500D01*
X112222414Y-68711794D01*
X112204108Y-68667600D01*
X112204105Y-68667594D01*
X112204101Y-68667586D01*
X112190535Y-68642742D01*
X112190534Y-68642741D01*
X112190533Y-68642739D01*
X112141850Y-68603507D01*
X112132399Y-68595891D01*
X112111564Y-68587261D01*
X112088206Y-68577586D01*
X112088202Y-68577585D01*
X112037500Y-68567500D01*
X100133480Y-68567500D01*
X100082777Y-68577585D01*
X100082775Y-68577585D01*
X100082774Y-68577586D01*
X100072053Y-68582026D01*
X100038583Y-68595890D01*
X100038566Y-68595898D01*
X100013722Y-68609464D01*
X100013720Y-68609466D01*
X100003085Y-68622662D01*
X99961099Y-68645584D01*
X99915202Y-68632105D01*
X99910228Y-68627636D01*
X99584404Y-68301812D01*
X99584404Y-68301811D01*
X98850428Y-67567834D01*
X98850427Y-67567833D01*
X98850423Y-67567831D01*
X98850421Y-67567830D01*
X98850409Y-67567825D01*
X98786012Y-67541150D01*
X98786011Y-67541150D01*
X98209500Y-67541150D01*
X98201340Y-67540615D01*
X98195819Y-67539888D01*
X98172727Y-67532048D01*
X98171057Y-67531084D01*
X98167449Y-67529000D01*
X98144575Y-67506125D01*
X98141522Y-67500837D01*
X98133684Y-67477739D01*
X98132959Y-67472222D01*
X98132426Y-67464076D01*
X98132426Y-67100074D01*
X98132424Y-67100066D01*
X98132419Y-67100049D01*
X98132417Y-67100041D01*
X98132351Y-67099774D01*
X98132240Y-67099382D01*
X98104128Y-66994461D01*
X98049459Y-66899771D01*
X98049457Y-66899769D01*
X98049456Y-66899768D01*
X98049454Y-66899764D01*
X97972150Y-66822460D01*
X97924800Y-66795122D01*
X97924800Y-66795121D01*
X97877456Y-66767788D01*
X97877427Y-66767780D01*
X97771860Y-66739494D01*
X97771851Y-66739492D01*
X97771850Y-66739492D01*
X97771845Y-66739491D01*
X97771844Y-66739491D01*
X97542506Y-66739491D01*
X97542504Y-66739491D01*
X97542501Y-66739492D01*
X97512349Y-66747571D01*
X97436900Y-66767786D01*
X97436896Y-66767787D01*
X97436889Y-66767791D01*
X97342204Y-66822459D01*
X97342200Y-66822462D01*
X97342191Y-66822470D01*
X97264905Y-66899756D01*
X97264897Y-66899765D01*
X97264894Y-66899769D01*
X97210226Y-66994454D01*
X97210222Y-66994461D01*
X97210214Y-66994488D01*
X97181928Y-67100055D01*
X97181927Y-67100063D01*
X97181926Y-67100065D01*
X97181926Y-67459451D01*
X97181477Y-67460532D01*
X97181631Y-67465515D01*
X97180589Y-67476204D01*
X97172507Y-67501397D01*
X97169773Y-67506131D01*
X97146906Y-67528997D01*
X97141628Y-67532045D01*
X97118541Y-67539886D01*
X97113019Y-67540614D01*
X97104850Y-67541150D01*
X97009500Y-67541150D01*
X97001340Y-67540615D01*
X96995818Y-67539887D01*
X96972724Y-67532046D01*
X96967446Y-67528998D01*
X96944577Y-67506127D01*
X96941526Y-67500843D01*
X96933684Y-67477739D01*
X96932959Y-67472222D01*
X96932426Y-67464076D01*
X96932426Y-67100052D01*
X96932426Y-67100050D01*
X96932424Y-67100042D01*
X96904129Y-66994440D01*
X96904128Y-66994437D01*
X96865849Y-66928136D01*
X96849459Y-66899747D01*
X96849457Y-66899745D01*
X96849455Y-66899741D01*
X96772150Y-66822436D01*
X96677580Y-66767835D01*
X96677472Y-66767772D01*
X96677458Y-66767765D01*
X96677455Y-66767764D01*
X96677452Y-66767763D01*
X96677437Y-66767759D01*
X96677427Y-66767756D01*
X96571860Y-66739470D01*
X96571851Y-66739468D01*
X96571850Y-66739468D01*
X96571845Y-66739467D01*
X96571844Y-66739467D01*
X96342506Y-66739467D01*
X96342504Y-66739467D01*
X96342501Y-66739468D01*
X96312263Y-66747570D01*
X96236900Y-66767762D01*
X96236896Y-66767763D01*
X96236889Y-66767767D01*
X96142204Y-66822435D01*
X96142200Y-66822438D01*
X96142191Y-66822446D01*
X96064905Y-66899732D01*
X96064897Y-66899741D01*
X96064894Y-66899745D01*
X96010226Y-66994430D01*
X96010222Y-66994437D01*
X96010214Y-66994464D01*
X95981928Y-67100031D01*
X95981927Y-67100039D01*
X95981926Y-67100041D01*
X95981926Y-67459451D01*
X95981477Y-67460532D01*
X95981631Y-67465515D01*
X95980589Y-67476204D01*
X95972507Y-67501397D01*
X95969773Y-67506131D01*
X95946906Y-67528997D01*
X95941628Y-67532045D01*
X95918541Y-67539886D01*
X95913019Y-67540614D01*
X95904850Y-67541150D01*
X95809500Y-67541150D01*
X95801340Y-67540615D01*
X95795818Y-67539887D01*
X95772724Y-67532046D01*
X95767446Y-67528998D01*
X95744577Y-67506127D01*
X95741526Y-67500843D01*
X95733684Y-67477739D01*
X95732959Y-67472222D01*
X95732426Y-67464076D01*
X95732426Y-67100074D01*
X95732424Y-67100066D01*
X95732419Y-67100049D01*
X95732417Y-67100041D01*
X95732351Y-67099774D01*
X95732240Y-67099382D01*
X95704128Y-66994461D01*
X95649459Y-66899771D01*
X95649457Y-66899769D01*
X95649456Y-66899768D01*
X95649454Y-66899764D01*
X95572150Y-66822460D01*
X95524800Y-66795122D01*
X95524800Y-66795121D01*
X95477456Y-66767788D01*
X95477427Y-66767780D01*
X95371860Y-66739494D01*
X95371851Y-66739492D01*
X95371850Y-66739492D01*
X95371845Y-66739491D01*
X95371844Y-66739491D01*
X95142506Y-66739491D01*
X95142504Y-66739491D01*
X95142501Y-66739492D01*
X95112349Y-66747571D01*
X95036900Y-66767786D01*
X95036896Y-66767787D01*
X95036889Y-66767791D01*
X94942204Y-66822459D01*
X94942200Y-66822462D01*
X94942191Y-66822470D01*
X94864905Y-66899756D01*
X94864897Y-66899765D01*
X94864894Y-66899769D01*
X94810226Y-66994454D01*
X94810222Y-66994461D01*
X94810214Y-66994488D01*
X94781928Y-67100055D01*
X94781927Y-67100063D01*
X94781926Y-67100065D01*
X94781926Y-67464075D01*
X94781389Y-67472247D01*
X94780661Y-67477767D01*
X94772824Y-67500846D01*
X94769776Y-67506125D01*
X94746906Y-67528997D01*
X94741628Y-67532045D01*
X94718541Y-67539886D01*
X94713019Y-67540614D01*
X94704850Y-67541150D01*
X92175831Y-67541150D01*
X92151909Y-67536390D01*
X92146528Y-67534161D01*
X92143117Y-67532748D01*
X92109299Y-67498926D01*
X92105658Y-67490136D01*
X92100900Y-67466218D01*
X92100900Y-66941842D01*
X92100525Y-66939959D01*
X92093502Y-66904652D01*
X92090241Y-66899771D01*
X92090237Y-66899765D01*
X92065324Y-66862479D01*
X92065322Y-66862478D01*
X92065322Y-66862477D01*
X92023148Y-66834298D01*
X91985958Y-66826900D01*
X91985957Y-66826900D01*
X90436840Y-66826900D01*
X90418246Y-66830598D01*
X90418247Y-66830599D01*
X90405687Y-66833097D01*
X90402606Y-66833400D01*
X90399649Y-66834297D01*
X90357477Y-66862476D01*
X90357476Y-66862477D01*
X90329297Y-66904649D01*
X90328400Y-66907607D01*
X90328097Y-66910687D01*
X90321900Y-66941840D01*
X90321900Y-68365968D01*
X90317140Y-68389892D01*
X90313498Y-68398682D01*
X90279684Y-68432497D01*
X90273657Y-68434994D01*
X90270892Y-68436139D01*
X90246969Y-68440900D01*
X89682060Y-68440900D01*
X89658143Y-68436142D01*
X89636918Y-68427350D01*
X89616644Y-68413803D01*
X89457023Y-68254183D01*
X89443477Y-68233913D01*
X89438483Y-68221856D01*
X89436418Y-68179799D01*
X89437769Y-68175343D01*
X89445610Y-68158767D01*
X89459665Y-68137736D01*
X89526717Y-67975858D01*
X89560900Y-67804008D01*
X89560900Y-67628792D01*
X89526717Y-67456942D01*
X89459665Y-67295064D01*
X89362320Y-67149377D01*
X89238423Y-67025480D01*
X89238422Y-67025479D01*
X89238417Y-67025475D01*
X89229313Y-67019392D01*
X89092738Y-66928136D01*
X89092732Y-66928133D01*
X88930857Y-66861082D01*
X88930854Y-66861081D01*
X88759008Y-66826900D01*
X88583792Y-66826900D01*
X88583791Y-66826900D01*
X88417981Y-66859881D01*
X88417979Y-66859881D01*
X88411939Y-66861082D01*
X88250066Y-66928133D01*
X88250065Y-66928134D01*
X88250060Y-66928136D01*
X88104377Y-67025478D01*
X87980478Y-67149377D01*
X87883136Y-67295060D01*
X87883136Y-67295061D01*
X87883133Y-67295066D01*
X87816083Y-67456936D01*
X87816083Y-67456939D01*
X87816082Y-67456942D01*
X87816082Y-67456943D01*
X87798086Y-67547419D01*
X87781900Y-67628791D01*
X87781900Y-67804008D01*
X87811764Y-67954150D01*
X87814881Y-67969818D01*
X87814881Y-67969819D01*
X87816082Y-67975859D01*
X87875687Y-68119756D01*
X87883135Y-68137736D01*
X87883136Y-68137738D01*
X87930835Y-68209124D01*
X87980480Y-68283423D01*
X88104377Y-68407320D01*
X88250064Y-68504665D01*
X88411942Y-68571717D01*
X88583792Y-68605900D01*
X88759008Y-68605900D01*
X88930858Y-68571717D01*
X89092736Y-68504665D01*
X89111142Y-68492365D01*
X89133663Y-68483035D01*
X89146459Y-68480490D01*
X89188110Y-68486667D01*
X89192218Y-68488863D01*
X89206947Y-68499787D01*
X89471879Y-68764720D01*
X89536291Y-68791400D01*
X89536293Y-68791400D01*
X92567059Y-68791400D01*
X92631471Y-68764719D01*
X92680769Y-68715421D01*
X92682272Y-68711794D01*
X92707449Y-68651011D01*
X92707450Y-68651008D01*
X92707450Y-68176381D01*
X92712208Y-68152463D01*
X92715849Y-68143673D01*
X92749673Y-68109849D01*
X92758463Y-68106208D01*
X92782381Y-68101450D01*
X98553339Y-68101450D01*
X98577256Y-68106207D01*
X98598479Y-68114998D01*
X98618754Y-68128546D01*
X98951013Y-68460806D01*
X98969319Y-68505000D01*
X98951013Y-68549194D01*
X98906819Y-68567500D01*
X95462500Y-68567500D01*
X95411797Y-68577585D01*
X95411795Y-68577585D01*
X95411794Y-68577586D01*
X95401073Y-68582026D01*
X95367603Y-68595890D01*
X95367586Y-68595898D01*
X95342742Y-68609464D01*
X95342740Y-68609466D01*
X95295891Y-68667600D01*
X95277585Y-68711797D01*
X95267500Y-68762499D01*
X95267500Y-79710000D01*
X95249194Y-79754194D01*
X95205000Y-79772500D01*
X91863762Y-79772500D01*
X91839845Y-79767742D01*
X91818620Y-79758950D01*
X91798346Y-79745403D01*
X91778421Y-79725478D01*
X91632738Y-79628136D01*
X91632732Y-79628133D01*
X91470857Y-79561082D01*
X91470854Y-79561081D01*
X91299008Y-79526900D01*
X91123792Y-79526900D01*
X91123791Y-79526900D01*
X90957981Y-79559881D01*
X90957979Y-79559881D01*
X90951939Y-79561082D01*
X90790066Y-79628133D01*
X90790061Y-79628136D01*
X90790060Y-79628136D01*
X90644377Y-79725478D01*
X90644375Y-79725480D01*
X90644375Y-79725481D01*
X90624453Y-79745403D01*
X90608051Y-79761805D01*
X90587778Y-79775351D01*
X90566553Y-79784142D01*
X90542638Y-79788900D01*
X89340162Y-79788900D01*
X89316245Y-79784142D01*
X89295020Y-79775350D01*
X89274746Y-79761803D01*
X89238421Y-79725478D01*
X89092738Y-79628136D01*
X89092732Y-79628133D01*
X88930857Y-79561082D01*
X88930854Y-79561081D01*
X88759008Y-79526900D01*
X88583792Y-79526900D01*
X88583791Y-79526900D01*
X88417981Y-79559881D01*
X88417979Y-79559881D01*
X88411939Y-79561082D01*
X88250066Y-79628133D01*
X88250061Y-79628136D01*
X88250060Y-79628136D01*
X88104377Y-79725478D01*
X87980478Y-79849377D01*
X87883136Y-79995060D01*
X87883136Y-79995061D01*
X87883133Y-79995066D01*
X87816083Y-80156936D01*
X87816083Y-80156939D01*
X87816082Y-80156942D01*
X87816082Y-80156943D01*
X87781900Y-80328790D01*
X87781900Y-80504008D01*
X87814881Y-80669818D01*
X87814881Y-80669819D01*
X87816082Y-80675859D01*
X87883133Y-80837732D01*
X87883135Y-80837736D01*
X87883136Y-80837738D01*
X87980479Y-80983422D01*
X87980480Y-80983423D01*
X88104377Y-81107320D01*
X88250064Y-81204665D01*
X88411942Y-81271717D01*
X88583792Y-81305900D01*
X88759008Y-81305900D01*
X88930858Y-81271717D01*
X89092736Y-81204665D01*
X89238423Y-81107320D01*
X89274751Y-81070991D01*
X89295017Y-81057450D01*
X89316248Y-81048656D01*
X89340162Y-81043900D01*
X90542638Y-81043900D01*
X90566555Y-81048657D01*
X90587778Y-81057448D01*
X90608053Y-81070996D01*
X90644377Y-81107320D01*
X90790064Y-81204665D01*
X90951942Y-81271717D01*
X91123792Y-81305900D01*
X91299008Y-81305900D01*
X91470858Y-81271717D01*
X91632736Y-81204665D01*
X91778423Y-81107320D01*
X91831151Y-81054591D01*
X91851417Y-81041050D01*
X91872648Y-81032256D01*
X91896562Y-81027500D01*
X95205000Y-81027500D01*
X95249194Y-81045806D01*
X95267500Y-81090000D01*
X95267500Y-84118623D01*
X95249194Y-84162817D01*
X95205002Y-84181123D01*
X84930482Y-84181446D01*
X84906567Y-84176690D01*
X84897774Y-84173048D01*
X84863950Y-84139227D01*
X84863949Y-84139224D01*
X84860308Y-84130434D01*
X84855550Y-84106516D01*
X84855550Y-77776331D01*
X87655400Y-77776331D01*
X87655400Y-77976467D01*
X87693242Y-78166716D01*
X87693242Y-78166717D01*
X87694443Y-78172757D01*
X87771030Y-78357652D01*
X87771033Y-78357657D01*
X87771033Y-78357659D01*
X87839773Y-78460536D01*
X87839774Y-78460537D01*
X88151335Y-78148974D01*
X88195528Y-78130669D01*
X88239722Y-78148975D01*
X88249654Y-78161918D01*
X88264897Y-78188319D01*
X88264902Y-78188325D01*
X88359475Y-78282897D01*
X88359480Y-78282902D01*
X88385878Y-78298143D01*
X88414998Y-78336091D01*
X88408755Y-78383517D01*
X88398822Y-78396462D01*
X88087260Y-78708024D01*
X88154623Y-78753034D01*
X88190141Y-78776766D01*
X88190143Y-78776767D01*
X88375045Y-78853356D01*
X88565294Y-78891198D01*
X88569256Y-78892400D01*
X88771467Y-78892400D01*
X88783140Y-78892400D01*
X88790061Y-78888700D01*
X88967750Y-78853357D01*
X89152659Y-78776765D01*
X89255537Y-78708024D01*
X88943976Y-78396463D01*
X88925670Y-78352269D01*
X88943976Y-78308075D01*
X88956918Y-78298144D01*
X88983320Y-78282902D01*
X89077902Y-78188320D01*
X89093142Y-78161921D01*
X89131090Y-78132800D01*
X89178516Y-78139042D01*
X89191463Y-78148976D01*
X89503024Y-78460537D01*
X89571765Y-78357659D01*
X89648357Y-78172750D01*
X89683700Y-77995061D01*
X89687400Y-77988140D01*
X89687400Y-77778184D01*
X89687400Y-77776333D01*
X89687399Y-77776332D01*
X89687399Y-77776331D01*
X90195400Y-77776331D01*
X90195400Y-77976467D01*
X90233242Y-78166716D01*
X90233242Y-78166717D01*
X90234443Y-78172757D01*
X90311030Y-78357652D01*
X90311033Y-78357657D01*
X90311033Y-78357659D01*
X90379773Y-78460536D01*
X90379774Y-78460537D01*
X90691335Y-78148974D01*
X90735528Y-78130669D01*
X90779722Y-78148975D01*
X90789654Y-78161918D01*
X90804897Y-78188319D01*
X90804902Y-78188325D01*
X90899475Y-78282897D01*
X90899480Y-78282902D01*
X90925878Y-78298143D01*
X90954998Y-78336091D01*
X90948755Y-78383517D01*
X90938822Y-78396462D01*
X90627260Y-78708024D01*
X90694623Y-78753034D01*
X90730141Y-78776766D01*
X90730143Y-78776767D01*
X90915045Y-78853356D01*
X91105294Y-78891198D01*
X91109256Y-78892400D01*
X91311467Y-78892400D01*
X91323140Y-78892400D01*
X91330061Y-78888700D01*
X91507750Y-78853357D01*
X91692659Y-78776765D01*
X91795537Y-78708024D01*
X91483976Y-78396463D01*
X91465670Y-78352269D01*
X91483976Y-78308075D01*
X91496918Y-78298144D01*
X91523320Y-78282902D01*
X91617902Y-78188320D01*
X91633142Y-78161921D01*
X91671090Y-78132800D01*
X91718516Y-78139042D01*
X91731463Y-78148976D01*
X92043024Y-78460537D01*
X92111765Y-78357659D01*
X92188357Y-78172750D01*
X92223700Y-77995061D01*
X92227400Y-77988140D01*
X92227400Y-77774256D01*
X92226197Y-77770291D01*
X92225958Y-77769091D01*
X92188356Y-77580045D01*
X92188356Y-77580044D01*
X92185473Y-77573084D01*
X92131635Y-77443109D01*
X92111767Y-77395143D01*
X92111766Y-77395141D01*
X92043024Y-77292261D01*
X92043023Y-77292260D01*
X91731462Y-77603822D01*
X91687268Y-77622128D01*
X91643074Y-77603822D01*
X91633143Y-77590879D01*
X91617902Y-77564480D01*
X91574203Y-77520781D01*
X91523325Y-77469902D01*
X91523319Y-77469897D01*
X91496918Y-77454654D01*
X91467798Y-77416703D01*
X91474043Y-77369277D01*
X91483971Y-77356338D01*
X91795537Y-77044774D01*
X91791505Y-77042080D01*
X91692658Y-76976033D01*
X91692652Y-76976030D01*
X91507755Y-76899443D01*
X91507752Y-76899442D01*
X91311467Y-76860400D01*
X91111333Y-76860400D01*
X91111332Y-76860400D01*
X90921083Y-76898242D01*
X90921081Y-76898242D01*
X90915041Y-76899443D01*
X90732197Y-76975181D01*
X90730857Y-76975681D01*
X90730140Y-76976032D01*
X90627260Y-77044774D01*
X90938822Y-77356336D01*
X90957128Y-77400530D01*
X90938822Y-77444724D01*
X90925879Y-77454656D01*
X90899480Y-77469897D01*
X90899474Y-77469902D01*
X90804902Y-77564474D01*
X90804897Y-77564480D01*
X90789656Y-77590879D01*
X90751705Y-77619999D01*
X90704279Y-77613754D01*
X90691336Y-77603822D01*
X90379774Y-77292260D01*
X90311032Y-77395140D01*
X90310681Y-77395857D01*
X90310181Y-77397197D01*
X90234444Y-77580038D01*
X90234444Y-77580041D01*
X90234443Y-77580044D01*
X90234443Y-77580045D01*
X90195400Y-77776331D01*
X89687399Y-77776331D01*
X89648356Y-77580045D01*
X89648356Y-77580044D01*
X89645473Y-77573084D01*
X89591635Y-77443109D01*
X89571767Y-77395143D01*
X89571766Y-77395141D01*
X89503024Y-77292261D01*
X89503023Y-77292260D01*
X89191462Y-77603822D01*
X89147268Y-77622128D01*
X89103074Y-77603822D01*
X89093143Y-77590879D01*
X89077902Y-77564480D01*
X89034203Y-77520781D01*
X88983325Y-77469902D01*
X88983319Y-77469897D01*
X88956918Y-77454654D01*
X88927798Y-77416703D01*
X88934043Y-77369277D01*
X88943971Y-77356338D01*
X89255537Y-77044774D01*
X89251505Y-77042080D01*
X89152658Y-76976033D01*
X89152652Y-76976030D01*
X88967755Y-76899443D01*
X88967752Y-76899442D01*
X88771467Y-76860400D01*
X88571333Y-76860400D01*
X88571332Y-76860400D01*
X88381083Y-76898242D01*
X88381081Y-76898242D01*
X88375041Y-76899443D01*
X88192197Y-76975181D01*
X88190857Y-76975681D01*
X88190140Y-76976032D01*
X88087260Y-77044774D01*
X88398822Y-77356336D01*
X88417128Y-77400530D01*
X88398822Y-77444724D01*
X88385879Y-77454656D01*
X88359480Y-77469897D01*
X88359474Y-77469902D01*
X88264902Y-77564474D01*
X88264897Y-77564480D01*
X88249656Y-77590879D01*
X88211705Y-77619999D01*
X88164279Y-77613754D01*
X88151336Y-77603822D01*
X87839774Y-77292260D01*
X87771032Y-77395140D01*
X87770681Y-77395857D01*
X87770181Y-77397197D01*
X87694444Y-77580038D01*
X87694444Y-77580041D01*
X87694443Y-77580044D01*
X87694443Y-77580045D01*
X87655400Y-77776331D01*
X84855550Y-77776331D01*
X84855550Y-75248790D01*
X87781900Y-75248790D01*
X87781900Y-75424008D01*
X87814881Y-75589818D01*
X87814881Y-75589819D01*
X87816082Y-75595859D01*
X87883133Y-75757732D01*
X87883135Y-75757736D01*
X87883136Y-75757738D01*
X87980479Y-75903422D01*
X87980480Y-75903423D01*
X88104377Y-76027320D01*
X88250064Y-76124665D01*
X88411942Y-76191717D01*
X88583792Y-76225900D01*
X88759008Y-76225900D01*
X88930858Y-76191717D01*
X89092736Y-76124665D01*
X89238423Y-76027320D01*
X89362320Y-75903423D01*
X89459665Y-75757736D01*
X89526717Y-75595858D01*
X89560900Y-75424008D01*
X89560900Y-75248792D01*
X89560900Y-75248790D01*
X90321900Y-75248790D01*
X90321900Y-75424008D01*
X90354881Y-75589818D01*
X90354881Y-75589819D01*
X90356082Y-75595859D01*
X90423133Y-75757732D01*
X90423135Y-75757736D01*
X90423136Y-75757738D01*
X90520479Y-75903422D01*
X90520480Y-75903423D01*
X90644377Y-76027320D01*
X90790064Y-76124665D01*
X90951942Y-76191717D01*
X91123792Y-76225900D01*
X91299008Y-76225900D01*
X91470858Y-76191717D01*
X91632736Y-76124665D01*
X91778423Y-76027320D01*
X91902320Y-75903423D01*
X91999665Y-75757736D01*
X92066717Y-75595858D01*
X92100900Y-75424008D01*
X92100900Y-75248792D01*
X92066717Y-75076942D01*
X91999665Y-74915064D01*
X91902320Y-74769377D01*
X91778423Y-74645480D01*
X91778420Y-74645478D01*
X91741011Y-74620482D01*
X91632742Y-74548138D01*
X91632732Y-74548133D01*
X91470857Y-74481082D01*
X91470854Y-74481081D01*
X91299008Y-74446900D01*
X91123792Y-74446900D01*
X91123791Y-74446900D01*
X90957981Y-74479881D01*
X90957979Y-74479881D01*
X90951939Y-74481082D01*
X90790066Y-74548133D01*
X90790061Y-74548136D01*
X90790060Y-74548136D01*
X90644377Y-74645478D01*
X90520478Y-74769377D01*
X90423136Y-74915060D01*
X90423136Y-74915061D01*
X90423133Y-74915066D01*
X90356083Y-75076936D01*
X90356083Y-75076939D01*
X90356082Y-75076942D01*
X90356082Y-75076943D01*
X90321900Y-75248790D01*
X89560900Y-75248790D01*
X89526717Y-75076942D01*
X89459665Y-74915064D01*
X89362320Y-74769377D01*
X89238423Y-74645480D01*
X89238420Y-74645478D01*
X89201011Y-74620482D01*
X89092742Y-74548138D01*
X89092732Y-74548133D01*
X88930857Y-74481082D01*
X88930854Y-74481081D01*
X88759008Y-74446900D01*
X88583792Y-74446900D01*
X88583791Y-74446900D01*
X88417981Y-74479881D01*
X88417979Y-74479881D01*
X88411939Y-74481082D01*
X88250066Y-74548133D01*
X88250061Y-74548136D01*
X88250060Y-74548136D01*
X88104377Y-74645478D01*
X87980478Y-74769377D01*
X87883136Y-74915060D01*
X87883136Y-74915061D01*
X87883133Y-74915066D01*
X87816083Y-75076936D01*
X87816083Y-75076939D01*
X87816082Y-75076942D01*
X87816082Y-75076943D01*
X87781900Y-75248790D01*
X84855550Y-75248790D01*
X84855550Y-72708790D01*
X87781900Y-72708790D01*
X87781900Y-72884008D01*
X87814881Y-73049818D01*
X87814881Y-73049819D01*
X87816082Y-73055858D01*
X87860051Y-73162006D01*
X87860051Y-73162008D01*
X87860052Y-73162008D01*
X87883134Y-73217734D01*
X87883135Y-73217737D01*
X87883136Y-73217738D01*
X87980480Y-73363423D01*
X88104377Y-73487320D01*
X88250064Y-73584665D01*
X88411942Y-73651717D01*
X88583792Y-73685900D01*
X88759008Y-73685900D01*
X88930858Y-73651717D01*
X89092736Y-73584665D01*
X89238423Y-73487320D01*
X89362320Y-73363423D01*
X89459665Y-73217736D01*
X89526717Y-73055858D01*
X89560900Y-72884008D01*
X89560900Y-72708792D01*
X89560900Y-72708790D01*
X90321900Y-72708790D01*
X90321900Y-72884008D01*
X90354881Y-73049818D01*
X90354881Y-73049819D01*
X90356082Y-73055858D01*
X90400051Y-73162006D01*
X90400051Y-73162008D01*
X90400052Y-73162008D01*
X90423134Y-73217734D01*
X90423135Y-73217737D01*
X90423136Y-73217738D01*
X90520480Y-73363423D01*
X90644377Y-73487320D01*
X90790064Y-73584665D01*
X90951942Y-73651717D01*
X91123792Y-73685900D01*
X91299008Y-73685900D01*
X91470858Y-73651717D01*
X91632736Y-73584665D01*
X91778423Y-73487320D01*
X91902320Y-73363423D01*
X91999665Y-73217736D01*
X92066717Y-73055858D01*
X92100900Y-72884008D01*
X92100900Y-72708792D01*
X92066717Y-72536942D01*
X91999665Y-72375064D01*
X91902320Y-72229377D01*
X91778423Y-72105480D01*
X91778422Y-72105479D01*
X91632738Y-72008136D01*
X91632736Y-72008135D01*
X91632732Y-72008133D01*
X91470857Y-71941082D01*
X91470854Y-71941081D01*
X91299008Y-71906900D01*
X91123792Y-71906900D01*
X91123791Y-71906900D01*
X90957981Y-71939881D01*
X90957979Y-71939881D01*
X90951939Y-71941082D01*
X90790066Y-72008133D01*
X90790061Y-72008136D01*
X90790060Y-72008136D01*
X90644377Y-72105478D01*
X90520478Y-72229377D01*
X90423136Y-72375060D01*
X90423136Y-72375061D01*
X90423133Y-72375066D01*
X90356083Y-72536936D01*
X90356083Y-72536939D01*
X90356082Y-72536942D01*
X90356082Y-72536943D01*
X90321900Y-72708790D01*
X89560900Y-72708790D01*
X89526717Y-72536942D01*
X89459665Y-72375064D01*
X89362320Y-72229377D01*
X89238423Y-72105480D01*
X89238422Y-72105479D01*
X89092738Y-72008136D01*
X89092736Y-72008135D01*
X89092732Y-72008133D01*
X88930857Y-71941082D01*
X88930854Y-71941081D01*
X88759008Y-71906900D01*
X88583792Y-71906900D01*
X88583791Y-71906900D01*
X88417981Y-71939881D01*
X88417979Y-71939881D01*
X88411939Y-71941082D01*
X88250066Y-72008133D01*
X88250061Y-72008136D01*
X88250060Y-72008136D01*
X88104377Y-72105478D01*
X87980478Y-72229377D01*
X87883136Y-72375060D01*
X87883136Y-72375061D01*
X87883133Y-72375066D01*
X87816083Y-72536936D01*
X87816083Y-72536939D01*
X87816082Y-72536942D01*
X87816082Y-72536943D01*
X87781900Y-72708790D01*
X84855550Y-72708790D01*
X84855550Y-70168791D01*
X87781900Y-70168791D01*
X87781900Y-70344008D01*
X87816082Y-70515856D01*
X87816082Y-70515857D01*
X87880293Y-70670874D01*
X87882447Y-70676075D01*
X87883136Y-70677739D01*
X87980479Y-70823422D01*
X87980480Y-70823423D01*
X88104377Y-70947320D01*
X88250064Y-71044665D01*
X88411942Y-71111717D01*
X88583792Y-71145900D01*
X88759008Y-71145900D01*
X88930858Y-71111717D01*
X89092736Y-71044665D01*
X89238423Y-70947320D01*
X89362320Y-70823423D01*
X89459665Y-70677736D01*
X89526717Y-70515858D01*
X89560900Y-70344008D01*
X89560900Y-70168792D01*
X89560900Y-70168791D01*
X90321900Y-70168791D01*
X90321900Y-70344008D01*
X90356082Y-70515856D01*
X90356082Y-70515857D01*
X90420293Y-70670874D01*
X90422447Y-70676075D01*
X90423136Y-70677739D01*
X90520479Y-70823422D01*
X90520480Y-70823423D01*
X90644377Y-70947320D01*
X90790064Y-71044665D01*
X90951942Y-71111717D01*
X91123792Y-71145900D01*
X91299008Y-71145900D01*
X91470858Y-71111717D01*
X91632736Y-71044665D01*
X91778423Y-70947320D01*
X91902320Y-70823423D01*
X91999665Y-70677736D01*
X92066717Y-70515858D01*
X92100900Y-70344008D01*
X92100900Y-70168792D01*
X92066717Y-69996942D01*
X91999665Y-69835064D01*
X91902320Y-69689377D01*
X91778423Y-69565480D01*
X91778422Y-69565479D01*
X91769960Y-69559825D01*
X91632738Y-69468136D01*
X91632732Y-69468133D01*
X91470857Y-69401082D01*
X91470854Y-69401081D01*
X91299008Y-69366900D01*
X91123792Y-69366900D01*
X91123791Y-69366900D01*
X90957981Y-69399881D01*
X90957979Y-69399881D01*
X90951939Y-69401082D01*
X90790066Y-69468133D01*
X90790061Y-69468136D01*
X90790060Y-69468136D01*
X90644377Y-69565478D01*
X90520478Y-69689377D01*
X90423136Y-69835060D01*
X90423136Y-69835061D01*
X90423133Y-69835066D01*
X90356083Y-69996936D01*
X90356083Y-69996939D01*
X90356082Y-69996942D01*
X90356082Y-69996943D01*
X90348302Y-70036059D01*
X90321900Y-70168791D01*
X89560900Y-70168791D01*
X89526717Y-69996942D01*
X89459665Y-69835064D01*
X89362320Y-69689377D01*
X89238423Y-69565480D01*
X89238422Y-69565479D01*
X89229960Y-69559825D01*
X89092738Y-69468136D01*
X89092732Y-69468133D01*
X88930857Y-69401082D01*
X88930854Y-69401081D01*
X88759008Y-69366900D01*
X88583792Y-69366900D01*
X88583791Y-69366900D01*
X88417981Y-69399881D01*
X88417979Y-69399881D01*
X88411939Y-69401082D01*
X88250066Y-69468133D01*
X88250061Y-69468136D01*
X88250060Y-69468136D01*
X88104377Y-69565478D01*
X87980478Y-69689377D01*
X87883136Y-69835060D01*
X87883136Y-69835061D01*
X87883133Y-69835066D01*
X87816083Y-69996936D01*
X87816083Y-69996939D01*
X87816082Y-69996942D01*
X87816082Y-69996943D01*
X87808302Y-70036059D01*
X87781900Y-70168791D01*
X84855550Y-70168791D01*
X84855550Y-66315056D01*
X108610400Y-66315056D01*
X108610400Y-66498982D01*
X108610401Y-66498993D01*
X108638399Y-66675755D01*
X108638399Y-66675760D01*
X108639168Y-66680617D01*
X108695998Y-66855524D01*
X108696000Y-66855527D01*
X108696001Y-66855531D01*
X108696002Y-66855533D01*
X108721030Y-66904652D01*
X108779497Y-67019399D01*
X108838171Y-67100157D01*
X108838172Y-67100158D01*
X109149697Y-66788632D01*
X109193890Y-66770327D01*
X109238084Y-66788633D01*
X109245856Y-66798102D01*
X109265834Y-66828000D01*
X109265835Y-66828001D01*
X109357818Y-66919984D01*
X109357824Y-66919989D01*
X109387712Y-66939959D01*
X109414289Y-66979732D01*
X109404957Y-67026648D01*
X109397184Y-67036120D01*
X109085658Y-67347646D01*
X109166419Y-67406321D01*
X109166421Y-67406322D01*
X109330286Y-67489817D01*
X109330288Y-67489818D01*
X109484389Y-67539888D01*
X109505197Y-67546649D01*
X109505200Y-67546650D01*
X109638935Y-67567832D01*
X109686831Y-67575418D01*
X109686847Y-67575420D01*
X109870752Y-67575420D01*
X109870753Y-67575420D01*
X109870768Y-67575418D01*
X110052398Y-67546650D01*
X110052399Y-67546650D01*
X110227311Y-67489818D01*
X110227313Y-67489817D01*
X110391172Y-67406326D01*
X110471938Y-67347645D01*
X110160414Y-67036121D01*
X110142108Y-66991927D01*
X110160414Y-66947733D01*
X110169875Y-66939967D01*
X110199780Y-66919986D01*
X110291766Y-66828000D01*
X110311741Y-66798104D01*
X110351512Y-66771529D01*
X110398429Y-66780860D01*
X110407901Y-66788634D01*
X110719425Y-67100158D01*
X110778106Y-67019392D01*
X110861597Y-66855533D01*
X110861598Y-66855531D01*
X110910692Y-66704437D01*
X110910692Y-66704436D01*
X110918429Y-66680624D01*
X110918430Y-66680618D01*
X110947198Y-66498988D01*
X110947200Y-66498972D01*
X110947200Y-66315067D01*
X110947198Y-66315051D01*
X110919200Y-66138282D01*
X110919200Y-66138279D01*
X110918430Y-66133421D01*
X110901250Y-66080544D01*
X110861598Y-65958508D01*
X110861597Y-65958506D01*
X110778102Y-65794640D01*
X110745139Y-65749271D01*
X110745138Y-65749270D01*
X110745133Y-65749264D01*
X110745133Y-65749262D01*
X110720226Y-65714981D01*
X113510390Y-65714981D01*
X113510390Y-65898907D01*
X113510391Y-65898918D01*
X113538389Y-66075680D01*
X113538389Y-66075685D01*
X113539158Y-66080542D01*
X113595988Y-66255449D01*
X113595990Y-66255452D01*
X113595991Y-66255456D01*
X113595992Y-66255458D01*
X113628832Y-66319909D01*
X113679487Y-66419324D01*
X113738161Y-66500082D01*
X113738162Y-66500083D01*
X114049687Y-66188557D01*
X114093880Y-66170252D01*
X114138074Y-66188558D01*
X114145846Y-66198027D01*
X114165824Y-66227925D01*
X114165825Y-66227926D01*
X114257808Y-66319909D01*
X114257814Y-66319914D01*
X114287702Y-66339884D01*
X114314279Y-66379657D01*
X114304947Y-66426573D01*
X114297174Y-66436045D01*
X113985648Y-66747571D01*
X114066409Y-66806246D01*
X114066411Y-66806247D01*
X114230276Y-66889742D01*
X114230278Y-66889743D01*
X114384828Y-66939959D01*
X114405187Y-66946574D01*
X114405190Y-66946575D01*
X114410051Y-66947345D01*
X114586821Y-66975343D01*
X114586837Y-66975345D01*
X114770742Y-66975345D01*
X114770743Y-66975345D01*
X114770758Y-66975343D01*
X114952388Y-66946575D01*
X114952389Y-66946575D01*
X115127301Y-66889743D01*
X115127303Y-66889742D01*
X115291162Y-66806251D01*
X115371928Y-66747570D01*
X115060404Y-66436046D01*
X115042098Y-66391852D01*
X115060404Y-66347658D01*
X115069865Y-66339892D01*
X115099770Y-66319911D01*
X115191756Y-66227925D01*
X115211731Y-66198029D01*
X115251502Y-66171454D01*
X115298419Y-66180785D01*
X115307891Y-66188559D01*
X115619415Y-66500083D01*
X115678096Y-66419317D01*
X115761587Y-66255458D01*
X115761588Y-66255456D01*
X115818420Y-66080544D01*
X115818420Y-66080543D01*
X115818624Y-66079254D01*
X115819190Y-66075685D01*
X115819190Y-66075681D01*
X115827153Y-66025404D01*
X115847188Y-65898913D01*
X115847190Y-65898897D01*
X115847190Y-65714992D01*
X115847188Y-65714976D01*
X115819190Y-65538207D01*
X115819190Y-65538204D01*
X115818420Y-65533346D01*
X115800820Y-65479179D01*
X115761588Y-65358433D01*
X115761587Y-65358431D01*
X115678092Y-65194566D01*
X115678091Y-65194564D01*
X115619414Y-65113803D01*
X115307890Y-65425328D01*
X115263696Y-65443634D01*
X115219502Y-65425328D01*
X115211729Y-65415857D01*
X115191756Y-65385965D01*
X115099771Y-65293980D01*
X115069872Y-65274001D01*
X115043298Y-65234226D01*
X115052631Y-65187310D01*
X115060397Y-65177847D01*
X115371929Y-64866317D01*
X115371928Y-64866316D01*
X115291169Y-64807642D01*
X115239140Y-64781131D01*
X115127303Y-64724147D01*
X115127301Y-64724146D01*
X115127295Y-64724144D01*
X115127293Y-64724143D01*
X114952391Y-64667314D01*
X114952386Y-64667313D01*
X114770771Y-64638547D01*
X114770754Y-64638545D01*
X114770743Y-64638545D01*
X114586837Y-64638545D01*
X114586826Y-64638545D01*
X114586815Y-64638546D01*
X114424112Y-64664316D01*
X114410052Y-64666544D01*
X114410045Y-64666544D01*
X114405191Y-64667313D01*
X114230284Y-64724143D01*
X114066410Y-64807642D01*
X113985649Y-64866317D01*
X114297174Y-65177842D01*
X114315480Y-65222036D01*
X114297174Y-65266230D01*
X114287705Y-65274002D01*
X114257811Y-65293977D01*
X114165822Y-65385966D01*
X114145847Y-65415860D01*
X114106072Y-65442434D01*
X114059156Y-65433101D01*
X114049687Y-65425329D01*
X113738162Y-65113804D01*
X113679487Y-65194565D01*
X113595988Y-65358439D01*
X113539158Y-65533346D01*
X113538389Y-65538204D01*
X113538389Y-65538208D01*
X113510391Y-65714970D01*
X113510390Y-65714981D01*
X110720226Y-65714981D01*
X110719425Y-65713878D01*
X110407900Y-66025403D01*
X110363706Y-66043709D01*
X110319512Y-66025403D01*
X110311739Y-66015932D01*
X110291766Y-65986040D01*
X110199781Y-65894055D01*
X110169882Y-65874076D01*
X110143308Y-65834301D01*
X110152641Y-65787385D01*
X110160407Y-65777922D01*
X110471939Y-65466392D01*
X110440615Y-65443634D01*
X110391179Y-65407717D01*
X110339150Y-65381206D01*
X110227313Y-65324222D01*
X110227311Y-65324221D01*
X110227305Y-65324219D01*
X110227303Y-65324218D01*
X110052401Y-65267389D01*
X110052396Y-65267388D01*
X109870781Y-65238622D01*
X109870764Y-65238620D01*
X109870753Y-65238620D01*
X109686847Y-65238620D01*
X109686836Y-65238620D01*
X109686825Y-65238621D01*
X109524122Y-65264391D01*
X109510062Y-65266619D01*
X109510055Y-65266619D01*
X109505201Y-65267388D01*
X109330294Y-65324218D01*
X109166420Y-65407717D01*
X109085659Y-65466392D01*
X109397184Y-65777917D01*
X109415490Y-65822111D01*
X109397184Y-65866305D01*
X109387715Y-65874077D01*
X109357821Y-65894052D01*
X109265832Y-65986041D01*
X109245857Y-66015935D01*
X109206082Y-66042509D01*
X109159166Y-66033176D01*
X109149697Y-66025404D01*
X108838172Y-65713879D01*
X108779497Y-65794640D01*
X108695998Y-65958514D01*
X108639168Y-66133421D01*
X108638399Y-66138279D01*
X108638399Y-66138283D01*
X108610401Y-66315045D01*
X108610400Y-66315056D01*
X84855550Y-66315056D01*
X84855550Y-63975478D01*
X84860307Y-63951562D01*
X84863949Y-63942769D01*
X84897768Y-63908947D01*
X84906564Y-63905303D01*
X84930475Y-63900546D01*
X116605519Y-63899551D01*
X116629433Y-63904307D01*
G37*
G04 #@! TD.AperFunction*
G04 #@! TA.AperFunction,Conductor*
G36*
X105223989Y-76017259D02*
G01*
X105232778Y-76020900D01*
X105266598Y-76054717D01*
X105268011Y-76058128D01*
X105270240Y-76063509D01*
X105275000Y-76087431D01*
X105275000Y-76502353D01*
X105256694Y-76546547D01*
X105242455Y-76557207D01*
X105233740Y-76561965D01*
X105233740Y-76561966D01*
X105233739Y-76561966D01*
X105233739Y-76561967D01*
X105226909Y-76570442D01*
X105186891Y-76620100D01*
X105168585Y-76664297D01*
X105158500Y-76714999D01*
X105158500Y-76780555D01*
X105159633Y-76797846D01*
X105159635Y-76797868D01*
X105161764Y-76814029D01*
X105188011Y-76877392D01*
X105217131Y-76915342D01*
X105256000Y-76949429D01*
X105272012Y-76958673D01*
X105274008Y-76959826D01*
X105286951Y-76969758D01*
X105330240Y-77013047D01*
X105340170Y-77025988D01*
X105368063Y-77074299D01*
X105370781Y-77079005D01*
X105377025Y-77094079D01*
X105390424Y-77144085D01*
X105392870Y-77153210D01*
X105395000Y-77169387D01*
X105395000Y-77230611D01*
X105392870Y-77246788D01*
X105377026Y-77305917D01*
X105370782Y-77320991D01*
X105340173Y-77374006D01*
X105330241Y-77386949D01*
X105286949Y-77430241D01*
X105274006Y-77440173D01*
X105220991Y-77470782D01*
X105205917Y-77477026D01*
X105172211Y-77486058D01*
X105146787Y-77492870D01*
X105130612Y-77495000D01*
X105048503Y-77495000D01*
X104997800Y-77505085D01*
X104997798Y-77505085D01*
X104997797Y-77505086D01*
X104987076Y-77509526D01*
X104953606Y-77523390D01*
X104953589Y-77523398D01*
X104928745Y-77536964D01*
X104928743Y-77536966D01*
X104918108Y-77550162D01*
X104876122Y-77573084D01*
X104830225Y-77559605D01*
X104825251Y-77555136D01*
X104218096Y-76947981D01*
X104204549Y-76927707D01*
X104195756Y-76906480D01*
X104191000Y-76882565D01*
X104191000Y-76698261D01*
X104195757Y-76674346D01*
X104199055Y-76666383D01*
X104232878Y-76632557D01*
X104276539Y-76630998D01*
X104279958Y-76632135D01*
X104281349Y-76632599D01*
X104299062Y-76641865D01*
X104405971Y-76721897D01*
X104405974Y-76721898D01*
X104405979Y-76721901D01*
X104473870Y-76747223D01*
X104541763Y-76772546D01*
X104601788Y-76778999D01*
X104925000Y-76778999D01*
X104925000Y-76087431D01*
X104929758Y-76063513D01*
X104929761Y-76063507D01*
X104933399Y-76054722D01*
X104967223Y-76020899D01*
X104976013Y-76017258D01*
X104999931Y-76012500D01*
X105200069Y-76012500D01*
X105223989Y-76017259D01*
G37*
G04 #@! TD.AperFunction*
G04 #@! TA.AperFunction,Conductor*
G36*
X110910507Y-76927745D02*
G01*
X110926848Y-76934514D01*
X110956313Y-76960352D01*
X110956387Y-76960301D01*
X110956596Y-76960600D01*
X110957057Y-76961005D01*
X110957914Y-76962490D01*
X110957921Y-76962498D01*
X111009349Y-77013926D01*
X111027655Y-77058120D01*
X111025525Y-77074299D01*
X111024270Y-77078979D01*
X111002286Y-77128686D01*
X110996555Y-77172243D01*
X110999183Y-77172588D01*
X110998038Y-77176861D01*
X110995983Y-77176602D01*
X110995962Y-77176768D01*
X110996387Y-77183020D01*
X110994515Y-77190008D01*
X110995000Y-77191436D01*
X110995000Y-77280611D01*
X110992870Y-77296788D01*
X110977026Y-77355917D01*
X110970782Y-77370991D01*
X110940173Y-77424006D01*
X110930241Y-77436949D01*
X110886949Y-77480241D01*
X110874006Y-77490173D01*
X110820991Y-77520782D01*
X110805917Y-77527026D01*
X110768830Y-77536964D01*
X110746787Y-77542870D01*
X110730612Y-77545000D01*
X110669388Y-77545000D01*
X110653212Y-77542870D01*
X110618138Y-77533472D01*
X110594079Y-77527025D01*
X110579007Y-77520782D01*
X110525988Y-77490170D01*
X110513047Y-77480240D01*
X110469757Y-77436950D01*
X110459825Y-77424006D01*
X110429218Y-77370994D01*
X110422973Y-77355919D01*
X110407129Y-77296784D01*
X110405000Y-77280609D01*
X110405000Y-77219386D01*
X110407129Y-77203212D01*
X110414214Y-77176768D01*
X110422972Y-77144080D01*
X110429214Y-77129010D01*
X110455786Y-77082990D01*
X110469023Y-77051035D01*
X110477397Y-77019785D01*
X110479807Y-77009014D01*
X110477996Y-76992170D01*
X110491472Y-76946273D01*
X110533456Y-76923347D01*
X110540138Y-76922989D01*
X110886593Y-76922989D01*
X110910507Y-76927745D01*
G37*
G04 #@! TD.AperFunction*
G04 #@! TA.AperFunction,Conductor*
G36*
X110746783Y-73957128D02*
G01*
X110805923Y-73972974D01*
X110820986Y-73979213D01*
X110874010Y-74009827D01*
X110886950Y-74019757D01*
X110930240Y-74063047D01*
X110940170Y-74075988D01*
X110970779Y-74129003D01*
X110970781Y-74129005D01*
X110977025Y-74144079D01*
X110992870Y-74203210D01*
X110995000Y-74219387D01*
X110995000Y-74280611D01*
X110992870Y-74296788D01*
X110977026Y-74355917D01*
X110970782Y-74370991D01*
X110940173Y-74424006D01*
X110930241Y-74436949D01*
X110886949Y-74480241D01*
X110874006Y-74490173D01*
X110820991Y-74520782D01*
X110805917Y-74527026D01*
X110766877Y-74537486D01*
X110746787Y-74542870D01*
X110730612Y-74545000D01*
X110669388Y-74545000D01*
X110653212Y-74542870D01*
X110618138Y-74533472D01*
X110594079Y-74527025D01*
X110579007Y-74520782D01*
X110525988Y-74490170D01*
X110513047Y-74480240D01*
X110469757Y-74436950D01*
X110459825Y-74424006D01*
X110429218Y-74370994D01*
X110422973Y-74355919D01*
X110407129Y-74296784D01*
X110405000Y-74280609D01*
X110405000Y-74219388D01*
X110407129Y-74203213D01*
X110422973Y-74144078D01*
X110429217Y-74129005D01*
X110459827Y-74075987D01*
X110469753Y-74063051D01*
X110513051Y-74019753D01*
X110525987Y-74009827D01*
X110579006Y-73979216D01*
X110594076Y-73972973D01*
X110623645Y-73965051D01*
X110653213Y-73957129D01*
X110669388Y-73955000D01*
X110730615Y-73955000D01*
X110746783Y-73957128D01*
G37*
G04 #@! TD.AperFunction*
G04 #@! TA.AperFunction,Conductor*
G36*
X110746783Y-72457128D02*
G01*
X110805923Y-72472974D01*
X110820986Y-72479213D01*
X110874010Y-72509827D01*
X110886950Y-72519757D01*
X110930240Y-72563047D01*
X110940170Y-72575988D01*
X110970779Y-72629003D01*
X110970781Y-72629005D01*
X110977025Y-72644078D01*
X110990872Y-72695757D01*
X110992870Y-72703210D01*
X110995000Y-72719387D01*
X110995000Y-72780611D01*
X110992870Y-72796788D01*
X110977026Y-72855917D01*
X110970782Y-72870991D01*
X110940173Y-72924006D01*
X110930241Y-72936949D01*
X110886949Y-72980241D01*
X110874006Y-72990173D01*
X110820991Y-73020782D01*
X110805917Y-73027026D01*
X110766877Y-73037486D01*
X110746787Y-73042870D01*
X110730612Y-73045000D01*
X110669388Y-73045000D01*
X110653212Y-73042870D01*
X110618138Y-73033472D01*
X110594079Y-73027025D01*
X110579007Y-73020782D01*
X110525988Y-72990170D01*
X110513047Y-72980240D01*
X110469757Y-72936950D01*
X110459825Y-72924006D01*
X110448853Y-72905003D01*
X110429217Y-72870993D01*
X110422973Y-72855919D01*
X110407129Y-72796784D01*
X110405000Y-72780609D01*
X110405000Y-72719388D01*
X110407129Y-72703213D01*
X110422973Y-72644078D01*
X110429217Y-72629005D01*
X110459827Y-72575987D01*
X110469753Y-72563051D01*
X110513051Y-72519753D01*
X110525987Y-72509827D01*
X110579006Y-72479216D01*
X110594076Y-72472973D01*
X110639478Y-72460809D01*
X110653213Y-72457129D01*
X110669388Y-72455000D01*
X110730615Y-72455000D01*
X110746783Y-72457128D01*
G37*
G04 #@! TD.AperFunction*
G04 #@! TA.AperFunction,Conductor*
G36*
X110746783Y-70957128D02*
G01*
X110805923Y-70972974D01*
X110820986Y-70979213D01*
X110874010Y-71009827D01*
X110886950Y-71019757D01*
X110930240Y-71063047D01*
X110940170Y-71075988D01*
X110970779Y-71129003D01*
X110970781Y-71129005D01*
X110977025Y-71144079D01*
X110992870Y-71203210D01*
X110995000Y-71219387D01*
X110995000Y-71280611D01*
X110992870Y-71296788D01*
X110977026Y-71355917D01*
X110970782Y-71370991D01*
X110940173Y-71424006D01*
X110930241Y-71436949D01*
X110886949Y-71480241D01*
X110874006Y-71490173D01*
X110820991Y-71520782D01*
X110805917Y-71527026D01*
X110766877Y-71537486D01*
X110746787Y-71542870D01*
X110730612Y-71545000D01*
X110669388Y-71545000D01*
X110653212Y-71542870D01*
X110618138Y-71533472D01*
X110594079Y-71527025D01*
X110579007Y-71520782D01*
X110525988Y-71490170D01*
X110513047Y-71480240D01*
X110469757Y-71436950D01*
X110459825Y-71424006D01*
X110429218Y-71370994D01*
X110422973Y-71355919D01*
X110407129Y-71296784D01*
X110405000Y-71280609D01*
X110405000Y-71219388D01*
X110407129Y-71203213D01*
X110422973Y-71144078D01*
X110429217Y-71129005D01*
X110459827Y-71075987D01*
X110469753Y-71063051D01*
X110513051Y-71019753D01*
X110525987Y-71009827D01*
X110579006Y-70979216D01*
X110594076Y-70972973D01*
X110623645Y-70965051D01*
X110653213Y-70957129D01*
X110669388Y-70955000D01*
X110730615Y-70955000D01*
X110746783Y-70957128D01*
G37*
G04 #@! TD.AperFunction*
G04 #@! TA.AperFunction,Conductor*
G36*
X110746783Y-69507128D02*
G01*
X110805923Y-69522974D01*
X110820986Y-69529213D01*
X110874010Y-69559827D01*
X110886950Y-69569757D01*
X110930240Y-69613047D01*
X110940170Y-69625988D01*
X110970779Y-69679003D01*
X110970781Y-69679005D01*
X110977025Y-69694079D01*
X110992870Y-69753210D01*
X110995000Y-69769387D01*
X110995000Y-69830611D01*
X110992870Y-69846788D01*
X110977026Y-69905917D01*
X110970782Y-69920991D01*
X110940173Y-69974006D01*
X110930241Y-69986949D01*
X110886949Y-70030241D01*
X110874006Y-70040173D01*
X110820991Y-70070782D01*
X110805917Y-70077026D01*
X110766877Y-70087486D01*
X110746787Y-70092870D01*
X110730612Y-70095000D01*
X110669388Y-70095000D01*
X110653212Y-70092870D01*
X110618138Y-70083472D01*
X110594079Y-70077025D01*
X110579007Y-70070782D01*
X110525988Y-70040170D01*
X110513047Y-70030240D01*
X110469757Y-69986950D01*
X110459825Y-69974006D01*
X110429218Y-69920994D01*
X110422973Y-69905919D01*
X110407129Y-69846784D01*
X110405000Y-69830609D01*
X110405000Y-69769388D01*
X110407129Y-69753213D01*
X110422973Y-69694078D01*
X110429217Y-69679005D01*
X110459827Y-69625987D01*
X110469753Y-69613051D01*
X110513051Y-69569753D01*
X110525987Y-69559827D01*
X110579006Y-69529216D01*
X110594076Y-69522973D01*
X110623645Y-69515051D01*
X110653213Y-69507129D01*
X110669388Y-69505000D01*
X110730615Y-69505000D01*
X110746783Y-69507128D01*
G37*
G04 #@! TD.AperFunction*
G04 #@! TD*
D22*
X84836000Y-63881000D02*
X116700000Y-63880000D01*
X84836000Y-84201000D02*
X84836000Y-63881000D01*
X116700000Y-63880000D02*
X116700000Y-84200000D01*
X116700000Y-84200000D02*
X84836000Y-84201000D01*
M02*
